<?xml version="1.0" encoding="utf-8"?>
<!-- Generator: Adobe Illustrator 25.4.1, SVG Export Plug-In . SVG Version: 6.00 Build 0)  -->
<svg version="1.1" id="Layer_1" xmlns="http://www.w3.org/2000/svg" xmlns:xlink="http://www.w3.org/1999/xlink" x="0px" y="0px"
	 viewBox="0 0 2839 429" style="enable-background:new 0 0 2839 429;" xml:space="preserve">
<g>
	<path d="M242.39,215.8c-2.66,16.14-4.49,31.62-5.49,46.43l-3.5,66.9c-1.83,33.95-3.49,55.21-4.99,63.78
		c-1.5,8.57-4.91,15.19-10.23,19.85c-5.33,4.66-11.57,6.99-18.72,6.99c-13.82,0-20.72-6.66-20.72-19.97c0-0.67,0.87-7.95,2.62-21.84
		s3.53-38.15,5.37-72.77c2.5-39.77,5.24-69.56,8.24-89.37c1.33-8.15,2-15.31,2-21.47c0-7.65-1-14.14-3-19.47
		c-12.82,4.99-25.96,13.48-39.44,25.46l-35.2,33.2L105.1,249.5c-1.17,6.83-4.58,21.47-10.23,43.94
		c-6.99,29.46-10.48,50.84-10.48,64.16c0,11.15-0.54,19.06-1.62,23.71c-1.08,4.66-4.29,9.15-9.61,13.48
		c-5.33,4.33-11.57,6.49-18.72,6.49c-14.15,0-21.22-11.65-21.22-34.95c0-13.81,4.16-38.44,12.48-73.89
		c6.49-25.96,10.15-42.27,10.98-48.93c0.83-6.65,1.75-18.47,2.75-35.45c3.83-41.27,8.99-67.69,15.48-79.26
		c6.49-11.56,14.14-17.35,22.97-17.35c5.99,0,11.19,2.41,15.6,7.24c4.41,4.83,6.62,10.32,6.62,16.48c0,3.16-2,11.98-5.99,26.46
		c-0.83,2.66-1.33,4.83-1.5,6.49l-3.5,26.71c11.15-17.81,26.38-33.95,45.68-48.43c19.3-14.48,34.78-21.72,46.43-21.72
		c26.13,0,41.94,12.98,47.43,38.94c22.3-24.3,49.59-36.45,81.88-36.45c33.78,0,50.68,19.39,50.68,58.16
		c0,31.45-0.92,69.98-2.75,115.58c-2.16,56.92-3.66,86.62-4.49,89.12c-1.67,5.16-5.12,9.69-10.36,13.6
		c-5.24,3.91-11.03,5.87-17.35,5.87c-13.65,0-20.47-7.33-20.47-21.97c0-26.46,1.25-52.17,3.74-77.14l3.5-77.88
		c0.5-10.32-0.83-22.26-3.99-35.82c-3.16-13.56-7.99-20.35-14.48-20.35c-5.33,0-16.73,4.83-34.2,14.48
		C262.86,200.49,250.21,208.81,242.39,215.8z"/>
	<path d="M607.29,333.84l23.01,14.83v1.53c-9.2,24.03-26.07,43.46-55.21,43.46c-31.19,0-46.52-28.63-47.55-51.12h-2.56
		c-6.65,27.61-24.03,51.12-55.21,51.12c-49.59,0-68.51-41.41-64.93-85.38l118.1-48.57v-31.19c0-55.21-5.62-63.91-26.07-63.91
		c-6.13,0-9.71,0.51-12.78,1.53l7.16,77.71v2.56l-82.82-17.38c17.38-43.97,69.53-80.78,115.03-80.78c61.35,0,85.38,22.5,84.87,74.13
		L607.29,333.84z M523.44,334.35v-50.61l-41.41,3.07c-4.09,29.65,4.6,52.66,25.56,52.66C514.75,339.47,518.84,337.42,523.44,334.35z
		"/>
	<path d="M629.27,173.82v-2.56l98.16-27.1h2.56v92.02h5.11c7.67-44.99,24.54-87.94,63.39-87.94c8.18,0,12.27,3.07,15.34,5.11
		l-5.11,104.81h-2.56c-10.74-14.32-25.05-31.7-42.43-31.7c-14.31,0-25.56,9.2-25.56,27.1v103.78l27.61,28.63v2.56H631.32v-2.56
		l21.47-25.56V208.08L629.27,173.82z"/>
	<path d="M808.72,174.85v-2.56l108.38-62.88h2.04v66.46l50.61-42.94h2.56l-1.02,59.82l-52.15-7.67v106.34
		c0,21.47,11.25,34.25,28.63,34.25c9.71,0,17.89-3.58,23.01-6.65l3.07,4.09c-4.6,30.16-29.14,70.55-74.13,70.55
		c-41.92,0-65.95-22.5-65.95-76.69V195.29L808.72,174.85z"/>
	<path d="M1086.32,360.94l16.36,25.05v2.56H979.47v-2.56l21.47-26.07V208.59l-24.03-33.23v-2.56l106.85-29.14h2.56V360.94z
		 M997.36,75.66c0-27.61,18.41-48.06,47.03-48.06c25.56,0,44.99,20.45,44.99,48.06c0,29.65-19.43,50.1-44.99,50.1
		C1015.77,125.77,997.36,105.32,997.36,75.66z"/>
	<path d="M1110.85,175.87v-2.56l103.27-29.14h2.56v69.02h2.56c11.76-41.41,41.41-64.93,76.18-64.93c39.88,0,57.77,25.56,57.77,77.71
		v134.46l16.87,25.56v2.56h-118.1v-2.56l15.85-25.56V239.77c0-21.47-8.69-29.14-23.01-29.14c-16.87,0-25.05,7.67-25.05,24.03v125.77
		l16.36,25.56v2.56H1112.9v-2.56l21.47-25.56V209.1L1110.85,175.87z"/>
	<path d="M1705.5,215.8c-2.66,16.14-4.49,31.62-5.49,46.43l-3.5,66.9c-1.83,33.95-3.5,55.21-4.99,63.78
		c-1.5,8.57-4.91,15.19-10.24,19.85c-5.33,4.66-11.57,6.99-18.72,6.99c-13.82,0-20.72-6.66-20.72-19.97c0-0.67,0.87-7.95,2.62-21.84
		c1.75-13.89,3.53-38.15,5.37-72.77c2.5-39.77,5.24-69.56,8.24-89.37c1.33-8.15,2-15.31,2-21.47c0-7.65-1-14.14-3-19.47
		c-12.82,4.99-25.96,13.48-39.44,25.46l-35.2,33.2l-14.23,15.98c-1.17,6.83-4.58,21.47-10.24,43.94
		c-6.99,29.46-10.48,50.84-10.48,64.16c0,11.15-0.54,19.06-1.62,23.71c-1.08,4.66-4.29,9.15-9.61,13.48
		c-5.33,4.33-11.57,6.49-18.72,6.49c-14.15,0-21.22-11.65-21.22-34.95c0-13.81,4.16-38.44,12.48-73.89
		c6.49-25.96,10.15-42.27,10.98-48.93c0.83-6.65,1.75-18.47,2.75-35.45c3.83-41.27,8.99-67.69,15.48-79.26
		c6.49-11.56,14.14-17.35,22.97-17.35c5.99,0,11.19,2.41,15.6,7.24c4.41,4.83,6.62,10.32,6.62,16.48c0,3.16-2,11.98-5.99,26.46
		c-0.83,2.66-1.33,4.83-1.5,6.49l-3.5,26.71c11.15-17.81,26.38-33.95,45.68-48.43c19.3-14.48,34.78-21.72,46.43-21.72
		c26.12,0,41.94,12.98,47.43,38.94c22.3-24.3,49.59-36.45,81.88-36.45c33.78,0,50.68,19.39,50.68,58.16
		c0,31.45-0.92,69.98-2.75,115.58c-2.17,56.92-3.66,86.62-4.49,89.12c-1.67,5.16-5.12,9.69-10.36,13.6
		c-5.24,3.91-11.03,5.87-17.35,5.87c-13.65,0-20.47-7.33-20.47-21.97c0-26.46,1.25-52.17,3.75-77.14l3.49-77.88
		c0.5-10.32-0.83-22.26-3.99-35.82c-3.16-13.56-7.99-20.35-14.48-20.35c-5.33,0-16.73,4.83-34.2,14.48
		C1725.97,200.49,1713.32,208.81,1705.5,215.8z"/>
	<path d="M1873.56,275.05c0-78.22,52.66-126.79,112.47-126.79c56.75,0,82.82,29.14,83.84,70.04c0.51,14.83-2.04,26.58-5.11,34.25
		h-147.75v5.62c0,61.35,31.19,96.62,80.78,96.62c33.23,0,56.24-11.25,74.13-30.16l5.11,4.09c-13.8,32.21-47.04,64.93-96.11,64.93
		C1919.57,393.66,1873.56,346.62,1873.56,275.05z M2023.36,235.17c2.05-5.62,2.56-10.22,2.56-17.89c0-29.65-21.98-53.68-49.08-53.68
		c-28.12,0-52.66,23.52-58.28,71.57H2023.36z"/>
	<path d="M2102.08,170.24v-2.04l75.15-24.03h2.04v59.82h1.53c13.29-27.61,40.9-55.73,75.66-55.73c49.59,0,72.09,29.14,72.09,79.24
		v137.52l33.23,20.96v2.56h-109.92v-2.56l33.23-20.96V238.24c0-41.92-20.96-55.73-48.06-55.73c-30.16,0-57.26,31.7-57.26,65.95
		l-0.51,116.56l33.23,20.96v2.56H2102.6v-2.56l33.23-20.96V186.6L2102.08,170.24z"/>
	<path d="M2389.4,311.86h2.56c13.29,32.72,44.48,66.97,74.64,66.97c20.45,0,36.3-16.36,36.3-39.88c0-20.96-8.69-30.16-31.7-43.97
		c-10.74-6.65-24.54-12.78-35.79-19.43c-25.05-14.83-42.43-30.67-42.43-60.33c0-44.48,37.83-66.97,83.33-66.97
		c15.34,0,35.28,2.56,50.1,6.65l6.13,63.39h-2.56c-18.92-28.63-38.85-55.21-64.42-55.21c-16.87,0-34.25,11.76-34.25,34.76
		c0,22.5,11.25,29.14,32.72,41.41c9.71,5.62,20.96,10.74,31.7,16.87c29.14,16.36,46.01,36.3,46.01,66.46
		c0,44.99-38.34,71.06-88.96,71.06c-15.85,0-38.85-2.56-56.75-7.16L2389.4,311.86z"/>
	<path d="M2809.65,261.76c0,62.37-43.46,131.9-125.26,131.9c-73.11,0-110.94-52.15-110.94-114.01
		c0-61.35,41.92-131.39,128.83-131.39C2773.35,148.26,2809.65,204.5,2809.65,261.76z M2622.53,264.31
		c0,77.71,34.76,113.5,72.09,113.5c31.19,0,65.95-25.05,65.95-100.71c0-78.73-33.23-112.99-72.6-112.99
		C2653.71,164.11,2622.53,192.74,2622.53,264.31z"/>
</g>
</svg>
