<svg id="eAdciU2ywKx1" xmlns="http://www.w3.org/2000/svg" xmlns:xlink="http://www.w3.org/1999/xlink" viewBox="0 0 164 164" shape-rendering="geometricPrecision" text-rendering="geometricPrecision"><defs><filter id="eAdciU2ywKx3-filter" x="-400%" width="600%" y="-400%" height="600%"><feGaussianBlur id="eAdciU2ywKx3-filter-drop-shadow-0-blur" in="SourceAlpha" stdDeviation="5,5"/><feOffset id="eAdciU2ywKx3-filter-drop-shadow-0-offset" dx="0" dy="0" result="tmp"/><feFlood id="eAdciU2ywKx3-filter-drop-shadow-0-flood" flood-color="rgb(0,0,0)"/><feComposite id="eAdciU2ywKx3-filter-drop-shadow-0-composite" operator="in" in2="tmp"/><feMerge id="eAdciU2ywKx3-filter-drop-shadow-0-merge"><feMergeNode id="eAdciU2ywKx3-filter-drop-shadow-0-merge-node-1"/><feMergeNode id="eAdciU2ywKx3-filter-drop-shadow-0-merge-node-2" in="SourceGraphic"/></feMerge></filter></defs><g id="eAdciU2ywKx2" transform="matrix(0 1 -1 0 145.99999999999997 18)"><circle id="eAdciU2ywKx3" r="60" transform="matrix(1 0 0 1 64 64)" filter="url(#eAdciU2ywKx3-filter)" fill="rgb(255,255,255)" stroke="rgb(35,31,32)" stroke-width="3" stroke-miterlimit="10"/><path id="eAdciU2ywKx4" d="M64,104C64,104,64,95.890000,64,93.190000C64,75.890000,64,24,64,24" transform="matrix(1 0 0 1 0.08310317999999 -0.01682300000000)" fill="none" stroke="rgb(35,31,32)" stroke-width="3" stroke-linecap="round" stroke-miterlimit="10"/><path id="eAdciU2ywKx5" d="M24,64C24,64,54.083103,63.983177,64.083103,63.983177C74.083103,63.983177,104,64,104,64" fill="none" stroke="rgb(35,31,32)" stroke-width="3" stroke-linecap="round" stroke-miterlimit="10"/></g><g id="eAdciU2ywKx6" display="none" transform="matrix(1 0 0 1 1.50000000000000 0)"><rect id="eAdciU2ywKx7" width="17" height="11" rx="0" ry="0" transform="matrix(1 0 0 1 105.50000000000000 58.50000000000000)" fill="none" stroke="rgb(35,31,32)" stroke-width="0.500000" stroke-linecap="round" stroke-miterlimit="10"/><rect id="eAdciU2ywKx8" width="17" height="11" rx="0" ry="0" transform="matrix(1 0 0 1 5.50000000000000 59.50000000000000)" fill="none" stroke="rgb(35,31,32)" stroke-width="0.500000" stroke-linecap="round" stroke-miterlimit="10"/><rect id="eAdciU2ywKx9" width="17" height="17" rx="0" ry="0" transform="matrix(1 0 0 1 55.50000000000000 5.50000000000000)" fill="none" stroke="rgb(35,31,32)" stroke-width="0.500000" stroke-linecap="round" stroke-miterlimit="10"/><rect id="eAdciU2ywKx10" width="17" height="17" rx="0" ry="0" transform="matrix(1 0 0 1 55.50000000000000 105.50000000000000)" fill="none" stroke="rgb(35,31,32)" stroke-width="0.500000" stroke-linecap="round" stroke-miterlimit="10"/></g><g id="eAdciU2ywKx11" transform="matrix(1 0 0 1 90.33578731706436 11.92259650504451)" opacity="0.88"><g id="eAdciU2ywKx12" transform="matrix(1 0 0 1 1.25158999999999 -2.92037700000000)"><path id="eAdciU2ywKx13" d="M77.370000,-0.670000C77.347774,-0.619156,77.313442,-0.574524,77.270000,-0.540000L77.150000,-0.460000C77.114045,-0.431082,77.086434,-0.393116,77.070000,-0.350000L77,-0.170000C76.930000,-0.020000,76.860000,0.160000,76.770000,0.380000C76.680000,0.600000,76.610000,0.830000,76.530000,1.080000C76.450000,1.330000,76.360000,1.580000,76.280000,1.840000C76.200000,2.100000,76.130000,2.350000,76.070000,2.590000C76.010000,2.830000,75.940000,3.030000,75.900000,3.220000C75.858663,3.360725,75.828569,3.504510,75.810000,3.650000C75.799407,3.799813,75.799407,3.950187,75.810000,4.100000C75.810000,4.260000,75.810000,4.430000,75.760000,4.620000C75.748375,4.705123,75.728275,4.788873,75.700000,4.870000C75.663503,4.968081,75.616567,5.061954,75.560000,5.150000C75.540429,5.178034,75.512392,5.199061,75.480000,5.210000C75.437313,5.220588,75.392687,5.220588,75.350000,5.210000L75.190000,5.210000L75.030000,5.210000C74.933737,5.196943,74.841544,5.162798,74.760000,5.110000C74.697261,5.060250,74.648932,4.994661,74.620000,4.920000C74.603962,4.823999,74.603962,4.726001,74.620000,4.630000C74.611337,4.513494,74.611337,4.396506,74.620000,4.280000C74.642855,4.117995,74.676259,3.957654,74.720000,3.800000C74.720000,3.620000,74.820000,3.430000,74.880000,3.240000C74.940000,3.050000,75.010000,2.830000,75.090000,2.620000L75.250000,2C75.330000,1.790000,75.400000,1.590000,75.480000,1.390000C75.560000,1.190000,75.620000,0.990000,75.690000,0.810000L75.290000,1.160000L74.860000,1.530000L74.450000,1.890000L74.070000,2.200000L73.770000,2.440000L73.580000,2.570000C73.466611,2.627321,73.367515,2.709332,73.290000,2.810000C73.216949,2.895091,73.150111,2.985324,73.090000,3.080000C73.052295,3.137670,73.008730,3.191288,72.960000,3.240000C72.924571,3.290576,72.880576,3.334571,72.830000,3.370000C72.783016,3.405766,72.728155,3.429768,72.670000,3.440000C72.597444,3.455097,72.522556,3.455097,72.450000,3.440000L72.320000,3.440000L72.130000,3.380000C72.081312,3.350175,72.037472,3.313080,72,3.270000C71.953049,3.243000,71.922945,3.194080,71.920000,3.140000C71.920000,3.010000,71.920000,2.860000,71.920000,2.680000C71.920000,2.500000,71.920000,2.310000,71.850000,2.110000L71.760000,1.470000C71.760000,1.260000,71.690000,1.040000,71.650000,0.840000C71.610000,0.640000,71.580000,0.440000,71.540000,0.260000C71.500000,0.080000,71.480000,-0.090000,71.450000,-0.220000C71.360000,-0.030000,71.280000,0.170000,71.200000,0.380000C71.120000,0.590000,71.030000,0.820000,70.950000,1.050000L70.710000,1.720000Q70.610000,2.070000,70.500000,2.380000C70.440000,2.590000,70.390000,2.790000,70.340000,2.990000C70.290000,3.190000,70.260000,3.350000,70.240000,3.500000C70.225556,3.597637,70.195150,3.692233,70.150000,3.780000C70.108717,3.876616,70.054923,3.967393,69.990000,4.050000C69.936509,4.131461,69.868757,4.202601,69.790000,4.260000C69.737717,4.305464,69.668911,4.327193,69.600000,4.320000L69.370000,4.320000C69.313258,4.310648,69.258900,4.290264,69.210000,4.260000C69.172816,4.233910,69.142043,4.199717,69.120000,4.160000C69.073465,4.111896,69.033150,4.058143,69,4C68.975481,3.938183,68.955429,3.874687,68.940000,3.810000C68.929930,3.750423,68.929930,3.689577,68.940000,3.630000L68.940000,3.570000C69.004574,3.457342,69.061373,3.340403,69.110000,3.220000C69.170000,3.090000,69.220000,2.950000,69.280000,2.800000C69.340000,2.650000,69.390000,2.510000,69.440000,2.350000C69.490000,2.190000,69.550000,2.050000,69.610000,1.890000L69.940000,1.010000C70.039762,0.665160,70.163394,0.327679,70.310000,0C70.380000,-0.120000,70.430000,-0.250000,70.490000,-0.380000C70.550000,-0.510000,70.600000,-0.650000,70.640000,-0.770000C70.685875,-0.884569,70.725926,-1.001385,70.760000,-1.120000C70.760000,-1.230000,70.830000,-1.310000,70.850000,-1.380000C70.870000,-1.450000,70.850000,-1.510000,70.910000,-1.590000C70.932763,-1.662885,70.962920,-1.733251,71,-1.800000C71.040162,-1.882157,71.102513,-1.951436,71.180000,-2C71.263971,-2.030571,71.356029,-2.030571,71.440000,-2L71.640000,-1.920000L71.870000,-1.770000L72.090000,-1.590000C72.146374,-1.544612,72.190968,-1.486296,72.220000,-1.420000C72.249032,-1.353704,72.220000,-1.330000,72.220000,-1.270000C72.220000,-1.210000,72.220000,-1.150000,72.220000,-1.090000C72.224397,-1.026743,72.224397,-0.963257,72.220000,-0.900000C72.230253,-0.847159,72.230253,-0.792841,72.220000,-0.740000C72.209747,-0.687159,72.220000,-0.640000,72.220000,-0.530000C72.220000,-0.420000,72.220000,-0.280000,72.220000,-0.120000C72.220000,0.040000,72.220000,0.230000,72.290000,0.430000C72.360000,0.630000,72.360000,0.830000,72.400000,1.030000C72.440000,1.230000,72.480000,1.430000,72.520000,1.620000C72.560000,1.810000,72.610000,1.980000,72.650000,2.130000L73,1.910000L73.240000,1.720000L73.480000,1.530000L73.710000,1.350000L74.240000,0.920000L74.820000,0.440000C75.010000,0.280000,75.190000,0.110000,75.370000,-0.060000C75.550000,-0.230000,75.700000,-0.400000,75.840000,-0.560000C75.980000,-0.720000,76.010000,-0.820000,76.100000,-0.940000C76.182447,-1.049676,76.272680,-1.153277,76.370000,-1.250000C76.449227,-1.330100,76.540289,-1.397554,76.640000,-1.450000C76.714460,-1.496966,76.802335,-1.518056,76.890000,-1.510000C76.945531,-1.495337,76.996887,-1.467947,77.040000,-1.430000C77.104896,-1.375104,77.165104,-1.314896,77.220000,-1.250000C77.275993,-1.179414,77.323018,-1.102158,77.360000,-1.020000C77.383939,-0.941791,77.383939,-0.858209,77.360000,-0.780000C77.366780,-0.743647,77.366780,-0.706353,77.360000,-0.670000Z" transform="matrix(1 0 0 1 -68.89000000000000 2.05000000000000)" fill="rgb(0,0,0)" stroke="none" stroke-width="1"/><path id="eAdciU2ywKx14" d="M83.760000,6.790000C83.740345,6.857735,83.709959,6.921882,83.670000,6.980000C83.623922,7.031569,83.569909,7.075454,83.510000,7.110000C83.446939,7.140486,83.379428,7.160739,83.310000,7.170000C83.234051,7.184832,83.155949,7.184832,83.080000,7.170000C83.002704,7.135017,82.939339,7.075172,82.900000,7C82.836450,6.933077,82.785620,6.855138,82.750000,6.770000C82.702465,6.676626,82.662342,6.579661,82.630000,6.480000C82.630000,6.380000,82.570000,6.270000,82.550000,6.170000C82.530000,6.070000,82.550000,5.970000,82.550000,5.880000C82.542636,5.803510,82.542636,5.726490,82.550000,5.650000C82.556410,5.570128,82.556410,5.489872,82.550000,5.410000C82.543459,5.316781,82.543459,5.223219,82.550000,5.130000L82.550000,5C82.545885,4.976848,82.545885,4.953152,82.550000,4.930000L82.550000,4.860000C82.487540,4.874877,82.422460,4.874877,82.360000,4.860000L82,4.800000L81.500000,4.800000L81.040000,4.800000L80.520000,4.800000L79.960000,4.750000C79.774609,4.719494,79.587646,4.699463,79.400000,4.690000L79.340000,4.690000L79.270000,4.690000L79.110000,4.820000L78.800000,5.070000C78.666094,5.184436,78.525874,5.291271,78.380000,5.390000C78.268833,5.471738,78.151856,5.545267,78.030000,5.610000C77.935796,5.668568,77.830050,5.706091,77.720000,5.720000C77.621021,5.740204,77.518979,5.740204,77.420000,5.720000C77.300250,5.686034,77.185816,5.635549,77.080000,5.570000C76.997717,5.513896,76.923669,5.446580,76.860000,5.370000C76.811824,5.306659,76.774639,5.235670,76.750000,5.160000C76.735584,5.100866,76.735584,5.039134,76.750000,4.980000C76.770420,4.894143,76.842341,4.830213,76.930000,4.820000C77.052510,4.799852,77.177490,4.799852,77.300000,4.820000L77.360000,4.820000L77.510000,4.710000L77.680000,4.600000L77.800000,4.510000L78.270000,4.130000L78.830000,3.670000L78.830000,3.670000L79,3.380000L79.190000,3.220000L79.380000,3.060000L79.620000,2.870000C79.860000,2.670000,80.070000,2.510000,80.250000,2.380000L80.730000,2L81.150000,1.630000L81.310000,1.470000L81.470000,1.320000L81.610000,1.180000L81.710000,1.060000C82.270000,0.330000,82.710000,0,82.920000,0.060000L83.160000,0.150000C83.215116,0.179684,83.260316,0.224884,83.290000,0.280000C83.311711,0.334587,83.311711,0.395413,83.290000,0.450000C83.297126,0.526501,83.297126,0.603499,83.290000,0.680000C83.265969,0.748785,83.245935,0.818902,83.230000,0.890000C83.226968,0.933280,83.226968,0.976720,83.230000,1.020000C83.224365,1.056450,83.224365,1.093550,83.230000,1.130000L83.230000,1.270000C83.230000,1.430000,83.230000,1.600000,83.300000,1.770000C83.370000,1.940000,83.300000,2.110000,83.300000,2.270000C83.300000,2.430000,83.300000,2.390000,83.300000,2.510000C83.300000,2.630000,83.300000,2.770000,83.300000,2.930000L83.300000,3.440000Q83.300000,3.710000,83.300000,3.950000C83.300000,4.100000,83.300000,4.240000,83.300000,4.360000C83.300000,4.480000,83.300000,4.540000,83.300000,4.570000C83.311835,4.861593,83.341894,5.152160,83.390000,5.440000C83.390000,5.500000,83.390000,5.540000,83.390000,5.580000C83.385183,5.619855,83.385183,5.660145,83.390000,5.700000L83.390000,5.850000L83.470000,6.070000C83.640621,6.273145,83.742187,6.525307,83.760000,6.790000ZM81.530000,3.870000L82.320000,3.870000C82.320000,3.720000,82.320000,3.560000,82.320000,3.400000C82.320000,3.240000,82.320000,3.080000,82.320000,2.910000C82.320000,2.740000,82.320000,2.590000,82.320000,2.440000C82.286373,2.289499,82.239525,2.142261,82.180000,2C81.850000,2.260000,81.510000,2.530000,81.180000,2.830000C80.850000,3.130000,80.500000,3.430000,80.180000,3.740000C80.271865,3.750416,80.362369,3.770528,80.450000,3.800000L80.690000,3.800000L81.300000,3.800000Z" transform="matrix(1 0 0 1 -68.89000000000000 2.05000000000000)" fill="rgb(0,0,0)" stroke="none" stroke-width="1"/><path id="eAdciU2ywKx15" d="M91,9.940000C90.972872,10.010913,90.919017,10.068359,90.850000,10.100000C90.778698,10.146587,90.695167,10.170951,90.610000,10.170000L90.400000,10.170000L90.180000,10.100000C90.011881,10.035804,89.861174,9.933049,89.740000,9.800000C89.593261,9.650720,89.462549,9.486492,89.350000,9.310000L89.110000,8.930000C89.010000,8.780000,88.910000,8.590000,88.780000,8.380000C88.728801,8.276999,88.672051,8.176852,88.610000,8.080000C88.530000,7.920000,88.410000,7.720000,88.270000,7.460000C88.130000,7.200000,88,7,88,6.910000L87.860000,6.680000L87.770000,6.620000L87.600000,6.540000L87.540000,6.540000L87.480000,6.540000L87.370000,6.540000L87.200000,6.480000C87.084376,6.308244,87.065477,6.089010,87.150000,5.900000C87.181312,5.812803,87.241234,5.738782,87.320000,5.690000C87.396140,5.647832,87.483499,5.630360,87.570000,5.640000L87.670000,5.640000L87.670000,5.640000L87.770000,5.640000C87.844900,5.678184,87.926317,5.701931,88.010000,5.710000L88.250000,5.710000L88.490000,5.710000L88.710000,5.710000L89.040000,5.710000L89.400000,5.650000L89.720000,5.570000L90.050000,5.450000C90.129083,5.417230,90.203146,5.373465,90.270000,5.320000C90.316583,5.268279,90.356864,5.211213,90.390000,5.150000C90.420298,5.048888,90.420298,4.941112,90.390000,4.840000C90.368730,4.722538,90.324558,4.610409,90.260000,4.510000C90.199246,4.398292,90.125391,4.294224,90.040000,4.200000C89.964360,4.112354,89.880659,4.032001,89.790000,3.960000C89.633401,3.830880,89.458059,3.726349,89.270000,3.650000L89.070000,3.570000L88.790000,3.480000L88.500000,3.400000L88.240000,3.330000L88.140000,3.330000L88.070000,3.330000L87.990000,3.330000L87.870000,3.330000C87.874899,3.393239,87.874899,3.456761,87.870000,3.520000C87.878382,3.589749,87.878382,3.660251,87.870000,3.730000C87.853673,3.831506,87.830283,3.931750,87.800000,4.030000C87.774843,4.114998,87.744792,4.198471,87.710000,4.280000C87.672490,4.354782,87.639107,4.431564,87.610000,4.510000L87.510000,4.720000C87.440000,4.860000,87.360000,4.990000,87.280000,5.130000C87.200000,5.270000,87.090000,5.430000,86.950000,5.630000L86.660000,6.110000L86.450000,6.480000C86.390000,6.580000,86.330000,6.680000,86.280000,6.780000C86.230000,6.880000,86.190000,6.980000,86.150000,7.070000L86,7.140000C85.995196,7.219928,85.995196,7.300072,86,7.380000C85.995047,7.459923,85.995047,7.540077,86,7.620000C85.990172,7.709732,85.990172,7.800268,86,7.890000C85.949825,7.922564,85.896156,7.949399,85.840000,7.970000L85.670000,7.970000L85.490000,7.970000L85.340000,7.970000C85.167093,7.909958,85.019246,7.793792,84.920000,7.640000C84.852079,7.507535,84.830934,7.355998,84.860000,7.210000C84.869866,7.138553,84.886611,7.068227,84.910000,7L85,6.720000C85.061939,6.576112,85.132053,6.435884,85.210000,6.300000L85.420000,6L85.620000,5.690000L85.710000,5.570000L85.790000,5.440000C85.815051,5.390331,85.845214,5.343411,85.880000,5.300000L85.980000,5.110000Q86.170000,4.810000,86.340000,4.510000C86.440000,4.310000,86.530000,4.130000,86.600000,3.960000C86.670000,3.790000,86.710000,3.690000,86.760000,3.550000C86.810000,3.410000,86.870000,3.250000,86.920000,3.090000L86.670000,3.090000L86.540000,3.090000C86.400000,3.030000,86.320000,2.960000,86.300000,2.870000C86.268284,2.765691,86.268284,2.654309,86.300000,2.550000C86.360000,2.410000,86.540000,2.330000,86.830000,2.310000L87.170000,2.310000L87.490000,2.310000C87.631673,2.321856,87.772140,2.345267,87.910000,2.380000L88.430000,2.490000L88.930000,2.630000L89.350000,2.780000C89.747823,2.947292,90.123900,3.162193,90.470000,3.420000C90.642838,3.548377,90.800518,3.695992,90.940000,3.860000C91.068473,4.011661,91.176093,4.179817,91.260000,4.360000C91.440119,4.739723,91.440119,5.180277,91.260000,5.560000C91.127579,5.848609,90.902245,6.084506,90.620000,6.230000C90.355487,6.371245,90.072854,6.475549,89.780000,6.540000C89.450893,6.614969,89.116619,6.665110,88.780000,6.690000L88.960000,6.990000L89.160000,7.300000L89.460000,7.770000L89.710000,8.170000L89.980000,8.590000L90.300000,9.090000L90.610000,9.560000L90.850000,9.900000Z" transform="matrix(1 0 0 1 -68.89000000000000 2.05000000000000)" fill="rgb(0,0,0)" stroke="none" stroke-width="1"/><path id="eAdciU2ywKx16" d="M99.500000,8.220000C99.445319,8.310017,99.360162,8.377433,99.260000,8.410000C99.108750,8.445746,98.951250,8.445746,98.800000,8.410000L98.230000,8.290000L97.600000,8.100000L97.350000,8L97.090000,7.910000L96.810000,7.810000L96.480000,7.680000C96.340000,7.850000,96.200000,8.020000,96.060000,8.220000C95.920000,8.420000,95.770000,8.610000,95.620000,8.790000L95.470000,8.990000L95.270000,9.260000C95.200000,9.370000,95.120000,9.470000,95.040000,9.580000L94.820000,9.900000L94.620000,10.180000C94.570000,10.270000,94.520000,10.340000,94.480000,10.400000L94.270000,10.720000C94.197545,10.822938,94.130779,10.929764,94.070000,11.040000L93.920000,11.250000C93.868895,11.330625,93.812083,11.407489,93.750000,11.480000C93.704297,11.549385,93.650595,11.613156,93.590000,11.670000C93.562414,11.708624,93.528624,11.742414,93.490000,11.770000L93.250000,11.710000L93.080000,11.640000L92.870000,11.490000C92.817097,11.437528,92.773179,11.376717,92.740000,11.310000C92.720799,11.241317,92.720799,11.168683,92.740000,11.100000C92.746503,11.014634,92.773983,10.932195,92.820000,10.860000C92.913611,10.686207,93.024147,10.522079,93.150000,10.370000L93.520000,9.890000L93.640000,9.730000L93.910000,9.390000L94.230000,9L94.580000,8.560000C94.680000,8.430000,94.770000,8.310000,94.850000,8.220000L95,8L95.260000,7.640000L95.490000,7.310000L95.310000,7.220000L95,7.110000L94.610000,6.930000L94.230000,6.750000L93.910000,6.590000L93.710000,6.490000C93.469410,6.374896,93.257581,6.207483,93.090000,6C92.978306,5.848346,92.978306,5.641654,93.090000,5.490000L93.190000,5.390000C93.241120,5.345400,93.298369,5.308356,93.360000,5.280000C93.423061,5.249514,93.490572,5.229261,93.560000,5.220000C93.614927,5.200142,93.675073,5.200142,93.730000,5.220000C93.821426,5.271913,93.905503,5.335812,93.980000,5.410000L94.170000,5.580000L94.250000,5.650000L94.340000,5.710000L94.520000,5.800000L94.760000,5.930000L95.010000,6.060000L95.370000,6.210000L95.770000,6.380000L96.160000,6.540000L96.490000,6.670000L96.730000,6.760000L97.660000,7.110000L98.510000,7.400000L98.760000,7.470000L98.920000,7.470000L99.070000,7.470000L99.250000,7.470000L99.450000,7.590000C99.499500,7.619214,99.540786,7.660500,99.570000,7.710000C99.590572,7.757884,99.590572,7.812116,99.570000,7.860000C99.601576,7.984433,99.575903,8.116466,99.500000,8.220000Z" transform="matrix(1 0 0 1 -68.89000000000000 2.05000000000000)" fill="rgb(0,0,0)" stroke="none" stroke-width="1"/><path id="eAdciU2ywKx17" d="M100.560000,9.910000C100.526444,9.961825,100.486083,10.008912,100.440000,10.050000L100.250000,10.240000C100.175086,10.304907,100.104907,10.375086,100.040000,10.450000L99.830000,10.660000L99.640000,10.850000L99.510000,10.990000C99.410000,11.120000,99.300000,11.260000,99.170000,11.410000L98.800000,11.850000L98.460000,12.270000C98.350000,12.410000,98.260000,12.530000,98.190000,12.640000L98.060000,12.840000L97.930000,13.070000C97.930000,13.160000,97.830000,13.250000,97.780000,13.350000C97.730000,13.450000,97.660000,13.550000,97.600000,13.630000C97.554987,13.706779,97.489099,13.769200,97.410000,13.810000C97.338596,13.849900,97.260752,13.876976,97.180000,13.890000C97.103679,13.900298,97.026321,13.900298,96.950000,13.890000C96.880794,13.874409,96.815905,13.843672,96.760000,13.800000C96.610750,13.684882,96.540762,13.494359,96.580000,13.310000C96.641415,13.012746,96.767761,12.732736,96.950000,12.490000C97.023380,12.375335,97.103522,12.265140,97.190000,12.160000C97.273778,12.041862,97.363911,11.928362,97.460000,11.820000L97.740000,11.500000L98,11.200000L98.200000,11L98.320000,10.850000C98.380000,10.780000,98.430000,10.700000,98.480000,10.630000C98.530000,10.560000,98.590000,10.490000,98.660000,10.410000L98.770000,10.290000L98.960000,10.080000L99.200000,9.820000L99.440000,9.570000L99.640000,9.370000L99.750000,9.250000L99.890000,9.080000L100,8.900000L100.140000,8.790000C100.178576,8.756280,100.222514,8.729241,100.270000,8.710000C100.315422,8.694755,100.364578,8.694755,100.410000,8.710000L100.560000,8.710000C100.613417,8.725174,100.664058,8.748807,100.710000,8.780000L100.830000,8.850000C100.905280,8.873796,100.967015,8.928269,101,9C101.020108,9.044501,101.020108,9.095499,101,9.140000C101.011230,9.202836,101.011230,9.267164,101,9.330000C100.954505,9.415955,100.904433,9.499408,100.850000,9.580000C100.817556,9.632964,100.780762,9.683137,100.740000,9.730000L100.620000,9.910000Z" transform="matrix(1 0 0 1 -68.89000000000000 2.05000000000000)" fill="rgb(0,0,0)" stroke="none" stroke-width="1"/><path id="eAdciU2ywKx18" d="M99.520000,13.820000L99.920000,13.500000L100.430000,13.080000L101,12.590000L101.570000,12.090000L102.070000,11.620000L102.450000,11.240000L102.600000,11.050000L102.740000,10.910000C102.795540,10.855986,102.864641,10.817980,102.940000,10.800000C103.025421,10.779221,103.114579,10.779221,103.200000,10.800000C103.310137,10.820837,103.413285,10.868973,103.500000,10.940000C103.573957,10.998177,103.632361,11.073759,103.670000,11.160000C103.690770,11.238652,103.690770,11.321348,103.670000,11.400000C103.660329,11.496227,103.636750,11.590543,103.600000,11.680000C103.600000,11.790000,103.510000,11.900000,103.460000,12.020000C103.403515,12.170172,103.356752,12.323822,103.320000,12.480000C103.320000,12.660000,103.230000,12.880000,103.180000,13.120000C103.130000,13.360000,103.100000,13.610000,103.070000,13.890000C103.040000,14.170000,103,14.450000,102.980000,14.740000C102.960000,15.030000,102.930000,15.320000,102.920000,15.610000C102.910000,15.900000,102.920000,16.180000,102.920000,16.440000L103.320000,16.120000L103.730000,15.770000L104.130000,15.410000L104.490000,15.090000L104.780000,14.820000L104.980000,14.640000L105.460000,14.210000L105.840000,13.860000C105.950000,13.750000,106.060000,13.640000,106.160000,13.520000C106.273968,13.399666,106.380816,13.272784,106.480000,13.140000L106.590000,13.030000C106.628625,12.988106,106.672291,12.951158,106.720000,12.920000L106.860000,12.840000L106.990000,12.840000L107.180000,12.840000L107.310000,12.840000L107.420000,12.840000L107.530000,12.920000C107.599014,12.974253,107.651062,13.047121,107.680000,13.130000C107.705227,13.208011,107.705227,13.291989,107.680000,13.370000C107.653297,13.451046,107.616330,13.528341,107.570000,13.600000C107.570000,13.670000,107.470000,13.740000,107.420000,13.810000L107.320000,13.910000L107.140000,14.070000L106.930000,14.250000L106.740000,14.400000C106.360000,14.690000,106,14.980000,105.670000,15.250000L104.770000,16.030000L104.010000,16.730000L103.400000,17.320000L103.330000,17.400000C103.300873,17.424087,103.274087,17.450873,103.250000,17.480000L103.160000,17.590000L103.040000,17.740000C102.968960,17.839076,102.876722,17.921066,102.770000,17.980000C102.684375,17.999003,102.595625,17.999003,102.510000,17.980000C102.429667,17.971267,102.353420,17.940075,102.290000,17.890000L102.110000,17.770000C102.023301,17.707327,101.957171,17.620314,101.920000,17.520000C101.903886,17.417295,101.903886,17.312705,101.920000,17.210000C101.907150,17.076976,101.907150,16.943024,101.920000,16.810000C101.931717,16.633528,101.931717,16.456472,101.920000,16.280000C101.920000,15.730000,101.970000,15.150000,102.010000,14.550000C102.050000,13.950000,102.140000,13.280000,102.250000,12.550000L101.620000,13.110000L101,13.690000L100.420000,14.260000L99.930000,14.750000C99.882396,14.814858,99.828830,14.875121,99.770000,14.930000L99.580000,15.110000C99.532133,15.162567,99.478456,15.209534,99.420000,15.250000C99.361544,15.290466,99.350000,15.320000,99.330000,15.320000L99.190000,15.380000L99.010000,15.380000L98.810000,15.380000C98.747847,15.373241,98.688892,15.348966,98.640000,15.310000C98.563389,15.253268,98.498807,15.181888,98.450000,15.100000C98.425568,15.032132,98.425568,14.957868,98.450000,14.890000C98.456087,14.809109,98.479991,14.730566,98.520000,14.660000L98.700000,14.390000C98.737510,14.338246,98.781163,14.291236,98.830000,14.250000L99.030000,14.060000L99.260000,13.870000Z" transform="matrix(1 0 0 1 -68.89000000000000 2.05000000000000)" fill="rgb(0,0,0)" stroke="none" stroke-width="1"/><path id="eAdciU2ywKx19" d="M116.490000,23L116.410000,23.060000L116.320000,23.060000L116.210000,23.060000C116.146386,23.077653,116.085731,23.104611,116.030000,23.140000L115.840000,23.240000L115.680000,23.330000C115.627860,23.356279,115.577724,23.386361,115.530000,23.420000L115.380000,23.540000L115.080000,23.790000L114.760000,24.040000L114.400000,24.300000L114,24.580000L113.350000,25.030000C113.120000,25.200000,112.890000,25.380000,112.670000,25.570000L112.460000,25.750000L112.210000,25.980000L111.950000,26.240000L111.700000,26.500000L111.700000,26.550000C111.713160,26.646219,111.713160,26.743781,111.700000,26.840000C111.693238,26.914105,111.657256,26.982471,111.600000,27.030000C111.545525,27.074128,111.479633,27.101872,111.410000,27.110000C111.330336,27.120366,111.249664,27.120366,111.170000,27.110000C111.083114,27.102008,110.998403,27.078289,110.920000,27.040000C110.838298,27.008830,110.765983,26.957177,110.710000,26.890000C110.606844,26.774432,110.549883,26.624910,110.550000,26.470000C110.560338,26.309203,110.604645,26.152423,110.680000,26.010000C110.766817,25.838274,110.877963,25.679976,111.010000,25.540000C111.150000,25.390000,111.290000,25.250000,111.440000,25.110000L111.550000,25.010000L111.850000,24.780000L112.320000,24.450000L112.890000,24.060000L113.480000,23.670000L114.030000,23.320000L114.450000,23.050000L114.210000,23.050000L113.860000,23.050000L113.450000,23.050000L113.040000,23.050000L112.650000,23.050000L112.350000,23.050000L111.800000,23.110000L111.240000,23.170000L111.170000,23.170000L111.050000,23.170000L110.820000,23.170000C110.532030,23.210008,110.239052,23.150000,109.990000,23C109.930179,22.876089,109.886490,22.745021,109.860000,22.610000C109.844915,22.510569,109.844915,22.409431,109.860000,22.310000C109.870416,22.218135,109.890528,22.127631,109.920000,22.040000C109.946989,22.027320,109.973663,22.013983,110,22L110.100000,21.700000C110.100000,21.610000,110.160000,21.530000,110.180000,21.460000C110.200000,21.390000,110.300000,21.170000,110.370000,21.020000C110.435300,20.866204,110.508737,20.715992,110.590000,20.570000L110.780000,20.260000L110.920000,20.020000L111.050000,19.800000C111.050000,19.720000,111.150000,19.630000,111.220000,19.530000L111.080000,19.610000L110.820000,19.750000L110.470000,19.940000L110.070000,20.160000L109.680000,20.380000L109.340000,20.570000L109.080000,20.710000L108.960000,20.780000C108.759458,20.880926,108.571497,21.005115,108.400000,21.150000L108.250000,21.280000L108.020000,21.470000L107.790000,21.670000L107.620000,21.810000C107.577334,21.848589,107.525815,21.876066,107.470000,21.890000C107.400463,21.901382,107.329537,21.901382,107.260000,21.890000C107.187000,21.899882,107.113000,21.899882,107.040000,21.890000C106.971595,21.875824,106.910960,21.836590,106.870000,21.780000C106.810442,21.722182,106.756839,21.658529,106.710000,21.590000C106.673035,21.538777,106.645909,21.481132,106.630000,21.420000C106.610189,21.361635,106.610189,21.298365,106.630000,21.240000C106.642672,21.166886,106.666270,21.096094,106.700000,21.030000L106.750000,20.960000C106.770731,20.925208,106.797878,20.894667,106.830000,20.870000C106.864832,20.825146,106.905146,20.784832,106.950000,20.750000L107.140000,20.570000L107.310000,20.470000L107.630000,20.300000L108.040000,20.090000L108.480000,19.870000L108.880000,19.670000L109.190000,19.520000L109.620000,19.310000L110.060000,19.090000L110.510000,18.870000L110.930000,18.660000C111.014604,18.595184,111.104984,18.538278,111.200000,18.490000L111.440000,18.370000C111.520724,18.335778,111.604405,18.309000,111.690000,18.290000C111.772677,18.275213,111.857323,18.275213,111.940000,18.290000C112.014631,18.302261,112.082206,18.341383,112.130000,18.400000C112.265043,18.539149,112.373494,18.701826,112.450000,18.880000C112.489452,19.017221,112.489452,19.162779,112.450000,19.300000C112.424712,19.455512,112.363036,19.602848,112.270000,19.730000C112.170000,19.890000,112.050000,20.060000,111.900000,20.260000L111.800000,20.420000C111.800000,20.470000,111.800000,20.520000,111.720000,20.580000C111.557477,20.861705,111.410588,21.152144,111.280000,21.450000C111.148953,21.777046,111.035458,22.110854,110.940000,22.450000C111.042370,22.469958,111.147630,22.469958,111.250000,22.450000C111.384494,22.433870,111.518021,22.410502,111.650000,22.380000L112.040000,22.310000C112.169811,22.300083,112.300189,22.300083,112.430000,22.310000L112.670000,22.310000L113.060000,22.310000L113.520000,22.310000L113.990000,22.310000L114.380000,22.310000L114.630000,22.310000L114.840000,22.310000L115.110000,22.310000L115.490000,22.310000L115.880000,22.310000L116.150000,22.310000C116.242120,22.308136,116.328831,22.353376,116.380000,22.430000C116.425631,22.480821,116.456722,22.543002,116.470000,22.610000C116.479635,22.689710,116.479635,22.770290,116.470000,22.850000C116.480394,22.922965,116.480394,22.997035,116.470000,23.070000C116.470000,23.140000,116.470000,23.190000,116.390000,23.210000Z" transform="matrix(1 0 0 1 -68.89000000000000 2.05000000000000)" fill="rgb(0,0,0)" stroke="none" stroke-width="1"/><path id="eAdciU2ywKx20" d="M120.080000,29.480000C120.024362,29.519099,119.958003,29.540054,119.890000,29.540000C119.830915,29.554817,119.769085,29.554817,119.710000,29.540000C119.656021,29.521578,119.605370,29.494564,119.560000,29.460000L119.460000,29.360000L119.350000,29.200000L119.220000,29.020000C119.220000,28.950000,119.130000,28.890000,119.090000,28.830000L118.960000,28.650000C118.890000,28.550000,118.810000,28.430000,118.700000,28.290000L118.350000,27.870000L118,27.450000L117.720000,27.120000L117.650000,27.030000L117.510000,26.870000L117.360000,26.720000C117.324165,26.687560,117.283727,26.660602,117.240000,26.640000C117.181159,26.623320,117.118841,26.623320,117.060000,26.640000C116.938505,26.690108,116.821428,26.750319,116.710000,26.820000L116.390000,26.990000L116.100000,27.140000L115.800000,27.300000L115.980000,27.530000L116.170000,27.770000C116.227913,27.847845,116.291414,27.921372,116.360000,27.990000L116.520000,28.190000C116.603355,28.266923,116.680278,28.350535,116.750000,28.440000L117.060000,28.870000C117.130000,28.970000,117.180000,29.060000,117.230000,29.140000C117.267023,29.207594,117.287580,29.282969,117.290000,29.360000C117.290198,29.431130,117.269319,29.500725,117.230000,29.560000C117.164771,29.641583,117.087164,29.712442,117,29.770000C116.947445,29.807737,116.884686,29.828657,116.820000,29.830000C116.764194,29.843971,116.705806,29.843971,116.650000,29.830000C116.594859,29.805634,116.546720,29.767810,116.510000,29.720000C116.459129,29.677065,116.415269,29.626456,116.380000,29.570000L116.290000,29.440000C116.259180,29.379758,116.222324,29.322799,116.180000,29.270000C116.180000,29.210000,116.110000,29.160000,116.080000,29.110000L116,29L115.780000,28.710000C115.690000,28.610000,115.610000,28.500000,115.510000,28.400000L115.230000,28.080000L114.950000,27.790000C114.950000,27.790000,114.950000,27.790000,114.840000,27.790000L114.600000,27.890000L114.280000,28.030000L113.940000,28.200000L113.640000,28.350000L113.450000,28.470000C113.472416,28.503524,113.499335,28.533808,113.530000,28.560000L113.690000,28.730000L113.910000,28.950000C113.990000,29.040000,114.080000,29.120000,114.170000,29.210000L114.430000,29.480000L114.690000,29.750000L115.050000,30.140000C115.180000,30.270000,115.300000,30.400000,115.420000,30.540000L115.760000,30.930000C115.857944,31.043832,115.948146,31.164101,116.030000,31.290000C116.080676,31.353335,116.121162,31.424186,116.150000,31.500000C116.165354,31.548821,116.165354,31.601179,116.150000,31.650000C116.140372,31.693776,116.115578,31.732738,116.080000,31.760000L115.940000,31.870000C115.864184,31.924074,115.779612,31.964668,115.690000,31.990000C115.621469,32.010282,115.548531,32.010282,115.480000,31.990000C115.419036,31.978898,115.361105,31.955044,115.310000,31.920000L115.200000,31.800000C115.130000,31.700000,115.050000,31.590000,114.960000,31.480000C114.870000,31.370000,114.790000,31.270000,114.700000,31.160000L114.430000,30.850000L114.190000,30.590000L114.100000,30.480000L114,30.300000C113.944475,30.248458,113.894227,30.191510,113.850000,30.130000L113.750000,30.020000C113.670000,29.930000,113.580000,29.840000,113.500000,29.740000L113.240000,29.460000L112.970000,29.200000L112.720000,28.980000L112.480000,28.790000C112.394858,28.725570,112.320584,28.647920,112.260000,28.560000C112.213156,28.491912,112.185521,28.412461,112.180000,28.330000C112.164824,28.260823,112.164824,28.189177,112.180000,28.120000C112.201648,28.065441,112.232047,28.014776,112.270000,27.970000C112.294860,27.931746,112.329348,27.900707,112.370000,27.880000C112.444728,27.822021,112.525138,27.771765,112.610000,27.730000L112.880000,27.590000C112.990243,27.527352,113.103736,27.470605,113.220000,27.420000L113.660000,27.220000L113.890000,27.100000L114.260000,26.920000L114.730000,26.700000L115.240000,26.440000L115.750000,26.190000L116.210000,25.970000L116.580000,25.790000L116.810000,25.680000C116.857709,25.648842,116.901375,25.611894,116.940000,25.570000C116.971688,25.531570,117.008733,25.497893,117.050000,25.470000L117.170000,25.400000L117.290000,25.400000L117.470000,25.400000L117.660000,25.400000C117.708190,25.411664,117.750698,25.440003,117.780000,25.480000L117.870000,25.630000L117.990000,25.850000C118.036924,25.917713,118.080315,25.987806,118.120000,26.060000L118.220000,26.210000L118.410000,26.440000L118.610000,26.700000L118.830000,26.970000L119.060000,27.220000L119.290000,27.470000L119.600000,27.830000L119.920000,28.220000C120.020000,28.350000,120.110000,28.460000,120.170000,28.550000C120.207656,28.604010,120.241089,28.660846,120.270000,28.720000C120.330032,28.860524,120.330032,29.019476,120.270000,29.160000C120.221979,29.253857,120.153659,29.335841,120.070000,29.400000Z" transform="matrix(1 0 0 1 -68.89000000000000 2.05000000000000)" fill="rgb(0,0,0)" stroke="none" stroke-width="1"/><path id="eAdciU2ywKx21" d="M124.320000,35.940000C124.211513,35.997664,124.097636,36.044555,123.980000,36.080000L123.660000,36.180000L123.540000,36.180000L123.300000,36.260000L123.020000,36.360000L122.720000,36.450000L122.460000,36.540000L122.290000,36.600000L121.960000,36.720000L121.420000,36.910000L120.780000,37.130000L120.140000,37.370000L119.600000,37.570000L119.260000,37.710000L119.200000,37.710000L119.120000,37.760000L118.990000,37.850000L118.790000,37.950000C118.751330,37.964587,118.708670,37.964587,118.670000,37.950000L118.510000,37.950000C118.448765,37.939836,118.390637,37.915901,118.340000,37.880000C118.290500,37.850786,118.249214,37.809500,118.220000,37.760000C118.173605,37.667309,118.136749,37.570143,118.110000,37.470000C118.100010,37.380277,118.100010,37.289723,118.110000,37.200000C118.130947,37.107231,118.161096,37.016783,118.200000,36.930000C118.200000,36.840000,118.300000,36.740000,118.370000,36.630000C118.440000,36.520000,118.590000,36.270000,118.710000,36.070000L119.040000,35.450000C119.150000,35.240000,119.250000,35.030000,119.340000,34.830000C119.430000,34.630000,119.500000,34.450000,119.570000,34.280000C119.586891,34.219008,119.606918,34.158928,119.630000,34.100000L119.740000,33.800000Q119.800000,33.640000,119.860000,33.440000C119.860000,33.300000,119.950000,33.170000,120,33.050000L120.120000,32.670000C120.120000,32.550000,120.200000,32.440000,120.230000,32.350000L120.060000,32.350000L119.760000,32.440000L119.380000,32.550000L118.960000,32.680000L118.550000,32.800000L118.190000,32.900000L117.940000,32.980000L117.830000,32.980000L116.830000,33.340000C116.550000,33.460000,116.310000,33.570000,116.100000,33.680000L115.970000,33.750000L115.860000,33.820000L115.760000,33.820000L115.610000,33.760000L115.480000,33.680000C115.445153,33.655273,115.414727,33.624847,115.390000,33.590000C115.337554,33.501019,115.303546,33.402395,115.290000,33.300000C115.265566,33.225280,115.265566,33.144720,115.290000,33.070000C115.340646,32.989036,115.409036,32.920646,115.490000,32.870000C115.601675,32.789010,115.718598,32.715515,115.840000,32.650000C115.991571,32.571943,116.148659,32.505097,116.310000,32.450000L116.860000,32.270000L117.090000,32.200000L117.500000,32.100000L118.030000,31.960000L118.600000,31.810000L119.180000,31.670000L119.680000,31.540000L120.070000,31.440000L120.260000,31.380000C120.387155,31.325758,120.517378,31.279012,120.650000,31.240000C120.780258,31.199770,120.914289,31.172964,121.050000,31.160000C121.165759,31.139425,121.284241,31.139425,121.400000,31.160000C121.501827,31.183421,121.589004,31.248804,121.640000,31.340000C121.674331,31.443904,121.674331,31.556096,121.640000,31.660000C121.622763,31.761578,121.565019,31.851803,121.480000,31.910000L121.480000,31.910000L121.420000,31.910000C121.381661,31.940852,121.353733,31.982744,121.340000,32.030000C121.312320,32.101879,121.288945,32.175342,121.270000,32.250000C121.237384,32.331311,121.210648,32.414859,121.190000,32.500000C121.174191,32.567853,121.154152,32.634650,121.130000,32.700000C121.105848,32.765350,121.130000,32.770000,121.080000,32.840000L120.980000,33.100000C120.980000,33.200000,120.890000,33.310000,120.850000,33.430000C120.810000,33.550000,120.760000,33.660000,120.710000,33.770000C120.660000,33.880000,120.630000,33.970000,120.600000,34.060000C120.570000,34.150000,120.540000,34.210000,120.520000,34.260000C120.500000,34.310000,120.430000,34.500000,120.370000,34.640000L120.180000,35.040000C120.120000,35.170000,120.060000,35.300000,119.990000,35.420000L119.820000,35.750000L119.720000,35.920000L119.610000,36.120000C119.563076,36.187713,119.519685,36.257806,119.480000,36.330000L119.360000,36.530000L119.490000,36.470000L119.790000,36.350000L120.190000,36.200000L120.650000,36.020000L121.120000,35.840000L121.540000,35.680000L121.860000,35.560000L122.030000,35.490000L122.170000,35.490000L122.440000,35.380000L122.770000,35.250000L123.100000,35.120000L123.400000,35L123.590000,34.930000L124,35C124.079386,34.985980,124.160614,34.985980,124.240000,35C124.305256,35.006503,124.367496,35.030707,124.420000,35.070000C124.477509,35.127025,124.527878,35.190826,124.570000,35.260000C124.579026,35.323012,124.579026,35.386988,124.570000,35.450000C124.580481,35.516255,124.580481,35.583745,124.570000,35.650000C124.548112,35.713724,124.517846,35.774255,124.480000,35.830000C124.434904,35.877404,124.380408,35.914870,124.320000,35.940000Z" transform="matrix(1 0 0 1 -68.89000000000000 2.05000000000000)" fill="rgb(0,0,0)" stroke="none" stroke-width="1"/><path id="eAdciU2ywKx22" d="M122.350000,43.690000C122.196707,43.759858,122.025619,43.780807,121.860000,43.750000C121.678589,43.727742,121.502544,43.673575,121.340000,43.590000C121.155020,43.499527,120.980624,43.388853,120.820000,43.260000C120.641431,43.123777,120.474215,42.973283,120.320000,42.810000C120.160000,42.650000,120.010000,42.470000,119.860000,42.290000C119.710000,42.110000,119.590000,41.920000,119.470000,41.750000C119.350000,41.580000,119.250000,41.400000,119.160000,41.240000C119.081748,41.100846,119.011630,40.957272,118.950000,40.810000C118.946939,40.773397,118.946939,40.736603,118.950000,40.700000C118.953061,40.663397,118.950000,40.610000,118.950000,40.560000C118.950000,40.510000,118.950000,40.470000,118.950000,40.420000C118.946111,40.383436,118.946111,40.346564,118.950000,40.310000C118.950000,40.260000,118.950000,40.190000,118.950000,40.110000C118.944666,40.020079,118.944666,39.929921,118.950000,39.840000L118.950000,39.570000C118.943662,39.483449,118.943662,39.396551,118.950000,39.310000C118.961155,39.236513,118.984831,39.165483,119.020000,39.100000C119.006533,39.068395,118.999725,39.034353,119,39L119.240000,39C119.289782,38.993392,119.340218,38.993392,119.390000,39C119.427291,39.005977,119.460140,39.027876,119.480000,39.060000C119.488846,39.136411,119.488846,39.213589,119.480000,39.290000C119.480000,39.380000,119.480000,39.490000,119.480000,39.610000C119.480000,39.730000,119.480000,39.850000,119.480000,39.980000C119.499377,40.099144,119.529499,40.216288,119.570000,40.330000C119.630000,40.470000,119.700000,40.620000,119.780000,40.770000C119.860000,40.920000,119.950000,41.070000,120.050000,41.230000C120.150000,41.390000,120.270000,41.540000,120.380000,41.690000C120.490000,41.840000,120.620000,41.970000,120.750000,42.100000C120.865773,42.224408,120.989357,42.341312,121.120000,42.450000C121.236947,42.550081,121.364351,42.637252,121.500000,42.710000L121.570000,42.710000L121.660000,42.710000L121.750000,42.710000C121.773047,42.715167,121.796953,42.715167,121.820000,42.710000C121.919011,42.664303,121.999949,42.586883,122.050000,42.490000C122.104528,42.366375,122.138314,42.234610,122.150000,42.100000C122.160035,41.910132,122.160035,41.719868,122.150000,41.530000C122.150000,41.320000,122.150000,41.080000,122.150000,40.820000C122.150000,40.560000,122.150000,40.460000,122.150000,40.260000C122.150000,40.060000,122.150000,39.880000,122.150000,39.690000C122.157911,39.505032,122.181326,39.321053,122.220000,39.140000C122.255503,38.966872,122.312617,38.798889,122.390000,38.640000C122.469473,38.486830,122.574285,38.348207,122.700000,38.230000C122.830697,38.094190,122.991786,37.991367,123.170000,37.930000C123.288220,37.900773,123.411780,37.900773,123.530000,37.930000C123.663549,37.952660,123.794293,37.989536,123.920000,38.040000C124.056176,38.101802,124.186675,38.175416,124.310000,38.260000L124.670000,38.540000C124.777174,38.628958,124.877461,38.725902,124.970000,38.830000C125.049600,38.907602,125.123148,38.991179,125.190000,39.080000L125.420000,39.400000L125.610000,39.700000C125.670000,39.800000,125.720000,39.910000,125.780000,40.020000C125.840000,40.130000,125.880000,40.250000,125.930000,40.380000C125.980000,40.510000,125.930000,40.500000,126.010000,40.590000C126.090000,40.680000,126.070000,40.780000,126.100000,40.890000C126.133881,41.000903,126.157316,41.114732,126.170000,41.230000C126.179651,41.343128,126.179651,41.456872,126.170000,41.570000C126.164524,41.666911,126.140773,41.761913,126.100000,41.850000C126.084115,41.909657,126.048958,41.962391,126,42C125.907929,42.021711,125.812071,42.021711,125.720000,42C125.604300,41.990177,125.490171,41.966680,125.380000,41.930000C125.266764,41.895379,125.156425,41.851911,125.050000,41.800000L124.770000,41.620000C124.694690,41.570361,124.627270,41.509683,124.570000,41.440000C124.526002,41.403305,124.503446,41.346916,124.510000,41.290000C124.520297,41.238508,124.548673,41.192397,124.590000,41.160000C124.646732,41.129007,124.707234,41.105478,124.770000,41.090000L125.210000,41.090000C125.220263,41.030439,125.220263,40.969561,125.210000,40.910000C125.213956,40.833384,125.213956,40.756616,125.210000,40.680000C125.192648,40.595107,125.169255,40.511561,125.140000,40.430000C125.121411,40.361767,125.098019,40.294933,125.070000,40.230000C125.032783,40.140408,124.989344,40.053529,124.940000,39.970000C124.880000,39.870000,124.820000,39.770000,124.740000,39.660000C124.662201,39.552323,124.578751,39.448844,124.490000,39.350000C124.403176,39.255887,124.305878,39.172010,124.200000,39.100000C124.110705,39.033177,124.008572,38.985515,123.900000,38.960000C123.803088,38.924856,123.696912,38.924856,123.600000,38.960000C123.489602,39.014717,123.406470,39.112308,123.370000,39.230000C123.317462,39.392775,123.280627,39.560205,123.260000,39.730000C123.249059,39.939857,123.249059,40.150143,123.260000,40.360000C123.260000,40.590000,123.260000,40.810000,123.260000,41.020000C123.260000,41.230000,123.260000,41.430000,123.260000,41.610000C123.260000,41.790000,123.260000,41.920000,123.260000,42.010000C123.260000,42.100000,123.260000,42.390000,123.260000,42.550000C123.245933,42.704639,123.208858,42.856310,123.150000,43C123.088891,43.133999,123.004214,43.255935,122.900000,43.360000C122.742414,43.508117,122.554850,43.620656,122.350000,43.690000Z" transform="matrix(1 0 0 1 -68.89000000000000 2.05000000000000)" fill="rgb(0,0,0)" stroke="none" stroke-width="1"/><path id="eAdciU2ywKx23" d="M126.550000,49.810000C126.347046,49.860146,126.139036,49.886986,125.930000,49.890000C125.678837,49.889134,125.428107,49.869076,125.180000,49.830000C124.909592,49.788041,124.642320,49.727905,124.380000,49.650000C124.108038,49.566014,123.843745,49.458958,123.590000,49.330000C123.242634,49.150617,122.908459,48.946770,122.590000,48.720000C122.332318,48.538742,122.097306,48.327231,121.890000,48.090000C121.702782,47.875039,121.544751,47.636312,121.420000,47.380000C121.292101,47.101688,121.185137,46.814224,121.100000,46.520000C121.065252,46.348408,121.065252,46.171592,121.100000,46C121.111339,45.824506,121.151896,45.652137,121.220000,45.490000C121.292558,45.323939,121.383098,45.166331,121.490000,45.020000C121.596660,44.872173,121.717208,44.734882,121.850000,44.610000C121.980558,44.490011,122.124902,44.385949,122.280000,44.300000C122.420009,44.212806,122.571458,44.145495,122.730000,44.100000C123.029854,44.017544,123.339039,43.973855,123.650000,43.970000C124.008700,43.966382,124.366944,43.996515,124.720000,44.060000C125.094298,44.124973,125.462319,44.221997,125.820000,44.350000C126.171420,44.481924,126.506867,44.653002,126.820000,44.860000C127.123275,45.055774,127.396181,45.294988,127.630000,45.570000C127.854950,45.843404,128.021691,46.159871,128.120000,46.500000C128.169578,46.674361,128.209637,46.851289,128.240000,47.030000C128.249133,47.199877,128.249133,47.370123,128.240000,47.540000C128.250592,47.696488,128.250592,47.853512,128.240000,48.010000C128.221305,48.147636,128.184311,48.282158,128.130000,48.410000C128.057563,48.620831,127.960207,48.822258,127.840000,49.010000C127.744583,49.157608,127.626463,49.289228,127.490000,49.400000C127.366271,49.497739,127.227906,49.575359,127.080000,49.630000ZM127.260000,46.740000C127.213337,46.563424,127.127937,46.399455,127.010000,46.260000C126.887039,46.115687,126.745859,45.987952,126.590000,45.880000C126.425032,45.766154,126.251132,45.665828,126.070000,45.580000Q125.790000,45.450000,125.500000,45.340000C125.321542,45.268620,125.137611,45.211769,124.950000,45.170000C124.746353,45.117981,124.539113,45.081212,124.330000,45.060000C124.110255,45.045014,123.889745,45.045014,123.670000,45.060000C123.456468,45.072309,123.245069,45.109220,123.040000,45.170000C122.870665,45.212487,122.711094,45.287179,122.570000,45.390000C122.445785,45.485433,122.337737,45.600234,122.250000,45.730000C122.171771,45.850972,122.120604,45.987419,122.100000,46.130000C122.065231,46.261067,122.065231,46.398933,122.100000,46.530000C122.155474,46.738985,122.243194,46.938043,122.360000,47.120000C122.476113,47.305548,122.613732,47.476734,122.770000,47.630000C122.920085,47.788630,123.087845,47.929548,123.270000,48.050000C123.455287,48.176532,123.649080,48.290135,123.850000,48.390000C124.047492,48.481346,124.251362,48.558215,124.460000,48.620000C124.653343,48.679706,124.850445,48.726476,125.050000,48.760000C125.263014,48.776514,125.476986,48.776514,125.690000,48.760000C125.923245,48.747854,126.154541,48.710981,126.380000,48.650000L126.640000,48.560000C126.724157,48.524824,126.804562,48.481272,126.880000,48.430000C126.961583,48.364771,127.032442,48.287164,127.090000,48.200000C127.168224,48.087760,127.225793,47.962463,127.260000,47.830000C127.305205,47.663725,127.328734,47.492306,127.330000,47.320000C127.340310,47.124076,127.316627,46.927846,127.260000,46.740000Z" transform="matrix(1 0 0 1 -68.89000000000000 2.05000000000000)" fill="rgb(0,0,0)" stroke="none" stroke-width="1"/></g></g><script><![CDATA[!function(t,n){"object"==typeof exports&&"undefined"!=typeof module?module.exports=n():"function"==typeof define&&define.amd?define(n):(t="undefined"!=typeof globalThis?globalThis:t||self).__SVGATOR_PLAYER__=n()}(this,(function(){"use strict";function t(n){return(t="function"==typeof Symbol&&"symbol"==typeof Symbol.iterator?function(t){return typeof t}:function(t){return t&&"function"==typeof Symbol&&t.constructor===Symbol&&t!==Symbol.prototype?"symbol":typeof t})(n)}function n(t,n){if(!(t instanceof n))throw new TypeError("Cannot call a class as a function")}function e(t,n){for(var e=0;e<n.length;e++){var r=n[e];r.enumerable=r.enumerable||!1,r.configurable=!0,"value"in r&&(r.writable=!0),Object.defineProperty(t,r.key,r)}}function r(t,n,r){return n&&e(t.prototype,n),r&&e(t,r),t}function i(t){return(i=Object.setPrototypeOf?Object.getPrototypeOf:function(t){return t.__proto__||Object.getPrototypeOf(t)})(t)}function u(t,n){return(u=Object.setPrototypeOf||function(t,n){return t.__proto__=n,t})(t,n)}function o(t,n){return!n||"object"!=typeof n&&"function"!=typeof n?function(t){if(void 0===t)throw new ReferenceError("this hasn't been initialised - super() hasn't been called");return t}(t):n}function a(t){var n=function(){if("undefined"==typeof Reflect||!Reflect.construct)return!1;if(Reflect.construct.sham)return!1;if("function"==typeof Proxy)return!0;try{return Boolean.prototype.valueOf.call(Reflect.construct(Boolean,[],(function(){}))),!0}catch(t){return!1}}();return function(){var e,r=i(t);if(n){var u=i(this).constructor;e=Reflect.construct(r,arguments,u)}else e=r.apply(this,arguments);return o(this,e)}}function l(t,n,e){return(l="undefined"!=typeof Reflect&&Reflect.get?Reflect.get:function(t,n,e){var r=function(t,n){for(;!Object.prototype.hasOwnProperty.call(t,n)&&null!==(t=i(t)););return t}(t,n);if(r){var u=Object.getOwnPropertyDescriptor(r,n);return u.get?u.get.call(e):u.value}})(t,n,e||t)}var s=Math.abs;function f(t){return t}function c(t,n,e){var r=1-e;return 3*e*r*(t*r+n*e)+e*e*e}function h(){var t=arguments.length>0&&void 0!==arguments[0]?arguments[0]:0,n=arguments.length>1&&void 0!==arguments[1]?arguments[1]:0,e=arguments.length>2&&void 0!==arguments[2]?arguments[2]:1,r=arguments.length>3&&void 0!==arguments[3]?arguments[3]:1;return t<0||t>1||e<0||e>1?null:s(t-n)<=1e-5&&s(e-r)<=1e-5?f:function(i){if(i<=0)return t>0?i*n/t:0===n&&e>0?i*r/e:0;if(i>=1)return e<1?1+(i-1)*(r-1)/(e-1):1===e&&t<1?1+(i-1)*(n-1)/(t-1):1;for(var u,o=0,a=1;o<a;){var l=c(t,e,u=(o+a)/2);if(s(i-l)<1e-5)break;l<i?o=u:a=u}return c(n,r,u)}}function v(){return 1}function d(t){return 1===t?1:0}function y(){var t=arguments.length>0&&void 0!==arguments[0]?arguments[0]:1,n=arguments.length>1&&void 0!==arguments[1]?arguments[1]:0;if(1===t){if(0===n)return d;if(1===n)return v}var e=1/t;return function(t){return t>=1?1:(t+=n*e)-t%e}}function g(t){var n=arguments.length>1&&void 0!==arguments[1]?arguments[1]:2;if(Number.isInteger(t))return t;var e=Math.pow(10,n);return Math.round(t*e)/e}var p=Math.PI/180;function m(t,n,e){return t>=.5?e:n}function b(t,n,e){return 0===t||n===e?n:t*(e-n)+n}function w(t,n,e){var r=b(t,n,e);return r<=0?0:r}function x(t,n,e){return 0===t?n:1===t?e:{x:b(t,n.x,e.x),y:b(t,n.y,e.y)}}function A(t,n,e){return 0===t?n:1===t?e:{x:w(t,n.x,e.x),y:w(t,n.y,e.y)}}function k(t,n,e){var r=function(t,n,e){return Math.round(b(t,n,e))}(t,n,e);return r<=0?0:r>=255?255:r}function _(t,n,e){return 0===t?n:1===t?e:{r:k(t,n.r,e.r),g:k(t,n.g,e.g),b:k(t,n.b,e.b),a:b(t,null==n.a?1:n.a,null==e.a?1:e.a)}}function S(t,n,e){if(0===t)return n;if(1===t)return e;var r=n.length;if(r!==e.length)return m(t,n,e);for(var i=[],u=0;u<r;u++)i.push(_(t,n[u],e[u]));return i}function M(t,n,e){var r=n.length;if(r!==e.length)return m(t,n,e);for(var i=new Array(r),u=0;u<r;u++)i[u]=b(t,n[u],e[u]);return i}function O(t,n){for(var e=[],r=0;r<t;r++)e.push(n);return e}function E(t,n){if(--n<=0)return t;var e=(t=Object.assign([],t)).length;do{for(var r=0;r<e;r++)t.push(t[r])}while(--n>0);return t}var B,I=function(){function t(e){n(this,t),this.list=e,this.length=e.length}return r(t,[{key:"setAttribute",value:function(t,n){for(var e=this.list,r=0;r<this.length;r++)e[r].setAttribute(t,n)}},{key:"removeAttribute",value:function(t){for(var n=this.list,e=0;e<this.length;e++)n[e].removeAttribute(t)}},{key:"style",value:function(t,n){for(var e=this.list,r=0;r<this.length;r++)e[r].style[t]=n}}]),t}(),j=/-./g,P=function(t,n){return n.toUpperCase()};function T(t){return"function"==typeof t?t:m}function F(t){return t?"function"==typeof t?t:Array.isArray(t)?function(t){var n=arguments.length>1&&void 0!==arguments[1]?arguments[1]:f;if(!Array.isArray(t))return n;switch(t.length){case 1:return y(t[0])||n;case 2:return y(t[0],t[1])||n;case 4:return h(t[0],t[1],t[2],t[3])||n}return n}(t,null):function(t,n){var e=arguments.length>2&&void 0!==arguments[2]?arguments[2]:f;switch(t){case"linear":return f;case"steps":return y(n.steps||1,n.jump||0)||e;case"bezier":case"cubic-bezier":return h(n.x1||0,n.y1||0,n.x2||0,n.y2||0)||e}return e}(t.type,t.value,null):null}function R(t,n,e){var r=arguments.length>3&&void 0!==arguments[3]&&arguments[3],i=n.length-1;if(t<=n[0].t)return r?[0,0,n[0].v]:n[0].v;if(t>=n[i].t)return r?[i,1,n[i].v]:n[i].v;var u,o=n[0],a=null;for(u=1;u<=i;u++){if(!(t>n[u].t)){a=n[u];break}o=n[u]}return null==a?r?[i,1,n[i].v]:n[i].v:o.t===a.t?r?[u,1,a.v]:a.v:(t=(t-o.t)/(a.t-o.t),o.e&&(t=o.e(t)),r?[u,t,e(t,o.v,a.v)]:e(t,o.v,a.v))}function C(t,n){var e=arguments.length>2&&void 0!==arguments[2]?arguments[2]:null;return t&&t.length?"function"!=typeof n?null:("function"!=typeof e&&(e=null),function(r){var i=R(r,t,n);return null!=i&&e&&(i=e(i)),i}):null}function N(t,n){return t.t-n.t}function q(n,e,r,i,u){var o,a="@"===r[0],l="#"===r[0],s=B[r],f=m;switch(a?(o=r.substr(1),r=o.replace(j,P)):l&&(r=r.substr(1)),t(s)){case"function":if(f=s(i,u,R,F,r,a,e,n),l)return f;break;case"string":f=C(i,T(s));break;case"object":if((f=C(i,T(s.i),s.f))&&"function"==typeof s.u)return s.u(e,f,r,a,n)}return f?function(t,n,e){var r=arguments.length>3&&void 0!==arguments[3]&&arguments[3];if(r)return t instanceof I?function(r){return t.style(n,e(r))}:function(r){return t.style[n]=e(r)};if(Array.isArray(n)){var i=n.length;return function(r){var u=e(r);if(null==u)for(var o=0;o<i;o++)t[o].removeAttribute(n);else for(var a=0;a<i;a++)t[a].setAttribute(n,u)}}return function(r){var i=e(r);null==i?t.removeAttribute(n):t.setAttribute(n,i)}}(e,r,f,a):null}function V(n,e,r,i){if(!i||"object"!==t(i))return null;var u=null,o=null;return Array.isArray(i)?o=function(t){if(!t||!t.length)return null;for(var n=0;n<t.length;n++)t[n].e&&(t[n].e=F(t[n].e));return t.sort(N)}(i):(o=i.keys,u=i.data||null),o?q(n,e,r,o,u):null}function L(t,n,e){if(!e)return null;var r=[];for(var i in e)if(e.hasOwnProperty(i)){var u=V(t,n,i,e[i]);u&&r.push(u)}return r.length?r:null}function z(t,n){if(!n.duration||n.duration<0)return null;var e=function(t,n){if(!n)return null;var e=[];if(Array.isArray(n))for(var r=n.length,i=0;i<r;i++){var u=n[i];if(2===u.length){var o=null;if("string"==typeof u[0])o=t.getElementById(u[0]);else if(Array.isArray(u[0])){o=[];for(var a=0;a<u[0].length;a++)if("string"==typeof u[0][a]){var l=t.getElementById(u[0][a]);l&&o.push(l)}o=o.length?1===o.length?o[0]:new I(o):null}if(o){var s=L(t,o,u[1]);s&&(e=e.concat(s))}}}else for(var f in n)if(n.hasOwnProperty(f)){var c=t.getElementById(f);if(c){var h=L(t,c,n[f]);h&&(e=e.concat(h))}}return e.length?e:null}(t,n.elements);return e?function(t,n){var e=arguments.length>2&&void 0!==arguments[2]?arguments[2]:1/0,r=arguments.length>3&&void 0!==arguments[3]?arguments[3]:1,i=arguments.length>4&&void 0!==arguments[4]&&arguments[4],u=arguments.length>5&&void 0!==arguments[5]?arguments[5]:1,o=t.length,a=r>0?n:0;i&&e%2==0&&(a=n-a);var l=null;return function(s,f){var c=s%n,h=1+(s-c)/n;f*=r,i&&h%2==0&&(f=-f);var v=!1;if(h>e)c=a,v=!0,-1===u&&(c=r>0?0:n);else if(f<0&&(c=n-c),c===l)return!1;l=c;for(var d=0;d<o;d++)t[d](c);return v}}(e,n.duration,n.iterations||1/0,n.direction||1,!!n.alternate,n.fill||1):null}var D=function(){function t(e,r){var i=arguments.length>2&&void 0!==arguments[2]?arguments[2]:{};n(this,t),this._id=0,this._running=!1,this._rollingBack=!1,this._animations=e,this.duration=r.duration,this.alternate=r.alternate,this.fill=r.fill,this.iterations=r.iterations,this.direction=i.direction||1,this.speed=i.speed||1,this.fps=i.fps||100,this.offset=i.offset||0,this.rollbackStartOffset=0}return r(t,[{key:"_rollback",value:function(){var t=this,n=1/0,e=null;this.rollbackStartOffset=this.offset,this._rollingBack||(this._rollingBack=!0,this._running=!0);this._id=window.requestAnimationFrame((function r(i){if(t._rollingBack){null==e&&(e=i);var u=i-e,o=t.rollbackStartOffset-u,a=Math.round(o*t.speed);if(a>t.duration&&n!=1/0){var l=!!t.alternate&&a/t.duration%2>1,s=a%t.duration;a=(s+=l?t.duration:0)||t.duration}var f=t.fps?1e3/t.fps:0,c=Math.max(0,a);if(c<n-f){t.offset=c,n=c;for(var h=t._animations,v=h.length,d=0;d<v;d++)h[d](c,t.direction)}var y=!1;if(t.iterations>0&&-1===t.fill){var g=t.iterations*t.duration,p=g==a;a=p?0:a,t.offset=p?0:t.offset,y=a>g}a>0&&t.offset>=a&&!y?t._id=window.requestAnimationFrame(r):t.stop()}}))}},{key:"_start",value:function(){var t=this,n=arguments.length>0&&void 0!==arguments[0]?arguments[0]:0,e=-1/0,r=null,i={},u=function u(o){t._running=!0,null==r&&(r=o);var a=Math.round((o-r+n)*t.speed),l=t.fps?1e3/t.fps:0;if(a>e+l&&!t._rollingBack){t.offset=a,e=a;for(var s=t._animations,f=s.length,c=0,h=0;h<f;h++)i[h]?c++:(i[h]=s[h](a,t.direction),i[h]&&c++);if(c===f)return void t._stop()}t._id=window.requestAnimationFrame(u)};this._id=window.requestAnimationFrame(u)}},{key:"_stop",value:function(){this._id&&window.cancelAnimationFrame(this._id),this._running=!1,this._rollingBack=!1}},{key:"play",value:function(){!this._rollingBack&&this._running||(this._rollingBack=!1,this.rollbackStartOffset>this.duration&&(this.offset=this.rollbackStartOffset-(this.rollbackStartOffset-this.offset)%this.duration,this.rollbackStartOffset=0),this._start(this.offset))}},{key:"stop",value:function(){this._stop(),this.offset=0,this.rollbackStartOffset=0;var t=this.direction,n=this._animations;window.requestAnimationFrame((function(){for(var e=0;e<n.length;e++)n[e](0,t)}))}},{key:"reachedToEnd",value:function(){return this.iterations>0&&this.offset>=this.iterations*this.duration}},{key:"restart",value:function(){this._stop(),this.offset=0,this._start()}},{key:"pause",value:function(){this._stop()}},{key:"reverse",value:function(){this.direction=-this.direction}}],[{key:"build",value:function(n,e){return(n=function(t,n){if(B=n,!t||!t.root||!Array.isArray(t.animations))return null;for(var e=document.getElementsByTagName("svg"),r=!1,i=0;i<e.length;i++)if(e[i].id===t.root&&!e[i].svgatorAnimation){(r=e[i]).svgatorAnimation=!0;break}if(!r)return null;var u=t.animations.map((function(t){return z(r,t)})).filter((function(t){return!!t}));return u.length?{element:r,animations:u,animationSettings:t.animationSettings,options:t.options||void 0}:null}(n,e))?{el:n.element,options:n.options||{},player:new t(n.animations,n.animationSettings,n.options)}:null}}]),t}();!function(){for(var t=0,n=["ms","moz","webkit","o"],e=0;e<n.length&&!window.requestAnimationFrame;++e)window.requestAnimationFrame=window[n[e]+"RequestAnimationFrame"],window.cancelAnimationFrame=window[n[e]+"CancelAnimationFrame"]||window[n[e]+"CancelRequestAnimationFrame"];window.requestAnimationFrame||(window.requestAnimationFrame=function(n){var e=Date.now(),r=Math.max(0,16-(e-t)),i=window.setTimeout((function(){n(e+r)}),r);return t=e+r,i},window.cancelAnimationFrame=window.clearTimeout)}();var U=function(t,n){var e=!1,r=null;return function(i){e&&clearTimeout(e),e=setTimeout((function(){return function(){for(var i=0,u=window.innerHeight,o=0,a=window.innerWidth,l=t.parentNode;l instanceof Element;){var s=window.getComputedStyle(l);if("visible"!==s.overflowY||"visible"!==s.overflowX){var f=l.getBoundingClientRect();"visible"!==s.overflowY&&(i=Math.max(i,f.top),u=Math.min(u,f.bottom)),"visible"!==s.overflowX&&(o=Math.max(o,f.left),a=Math.min(a,f.right))}if(l===l.parentNode)break;l=l.parentNode}e=!1;var c=t.getBoundingClientRect(),h=Math.min(c.height,Math.max(0,i-c.top)),v=Math.min(c.height,Math.max(0,c.bottom-u)),d=Math.min(c.width,Math.max(0,o-c.left)),y=Math.min(c.width,Math.max(0,c.right-a)),g=(c.height-h-v)/c.height,p=(c.width-d-y)/c.width,m=Math.round(g*p*100);null!==r&&r===m||(r=m,n(m))}()}),100)}},W=function(){function t(e,r,i){n(this,t),r=Math.max(1,r||1),r=Math.min(r,100),this.el=e,this.onTresholdChange=i&&i.call?i:function(){},this.tresholdPercent=r||1,this.currentVisibility=null,this.visibilityCalculator=U(e,this.onVisibilityUpdate.bind(this)),this.bindScrollWatchers(),this.visibilityCalculator()}return r(t,[{key:"bindScrollWatchers",value:function(){for(var t=this.el.parentNode;t&&(t.addEventListener("scroll",this.visibilityCalculator),t!==t.parentNode&&t!==document);)t=t.parentNode}},{key:"onVisibilityUpdate",value:function(t){var n=this.currentVisibility>=this.tresholdPercent,e=t>=this.tresholdPercent;if(null===this.currentVisibility||n!==e)return this.currentVisibility=t,void this.onTresholdChange(e);this.currentVisibility=t}}]),t}(),Y=/\.0+$/g;function G(t){return Number.isInteger(t)?t+"":t.toFixed(6).replace(Y,"")}function H(t){var n=arguments.length>1&&void 0!==arguments[1]?arguments[1]:" ";return t&&t.length?t.map(G).join(n):""}function Q(t){return G(t.x)+","+G(t.y)}function X(t){return t?null==t.a||t.a>=1?"rgb("+t.r+","+t.g+","+t.b+")":"rgba("+t.r+","+t.g+","+t.b+","+t.a+")":"transparent"}var $={f:null,i:A,u:function(t,n){return function(e){var r=n(e);t.setAttribute("rx",G(r.x)),t.setAttribute("ry",G(r.y))}}},Z={f:null,i:function(t,n,e){return 0===t?n:1===t?e:{width:w(t,n.width,e.width),height:w(t,n.height,e.height)}},u:function(t,n){return function(e){var r=n(e);t.setAttribute("width",G(r.width)),t.setAttribute("height",G(r.height))}}},J=Math.sin,K=Math.cos,tt=Math.acos,nt=Math.asin,et=Math.tan,rt=Math.atan2,it=Math.PI/180,ut=180/Math.PI,ot=Math.sqrt,at=function(){function t(){var e=arguments.length>0&&void 0!==arguments[0]?arguments[0]:1,r=arguments.length>1&&void 0!==arguments[1]?arguments[1]:0,i=arguments.length>2&&void 0!==arguments[2]?arguments[2]:0,u=arguments.length>3&&void 0!==arguments[3]?arguments[3]:1,o=arguments.length>4&&void 0!==arguments[4]?arguments[4]:0,a=arguments.length>5&&void 0!==arguments[5]?arguments[5]:0;n(this,t),this.m=[e,r,i,u,o,a],this.i=null,this.w=null,this.s=null}return r(t,[{key:"determinant",get:function(){var t=this.m;return t[0]*t[3]-t[1]*t[2]}},{key:"isIdentity",get:function(){if(null===this.i){var t=this.m;this.i=1===t[0]&&0===t[1]&&0===t[2]&&1===t[3]&&0===t[4]&&0===t[5]}return this.i}},{key:"point",value:function(t,n){var e=this.m;return{x:e[0]*t+e[2]*n+e[4],y:e[1]*t+e[3]*n+e[5]}}},{key:"translateSelf",value:function(){var t=arguments.length>0&&void 0!==arguments[0]?arguments[0]:0,n=arguments.length>1&&void 0!==arguments[1]?arguments[1]:0;if(!t&&!n)return this;var e=this.m;return e[4]+=e[0]*t+e[2]*n,e[5]+=e[1]*t+e[3]*n,this.w=this.s=this.i=null,this}},{key:"rotateSelf",value:function(){var t=arguments.length>0&&void 0!==arguments[0]?arguments[0]:0;if(t%=360){var n=J(t*=it),e=K(t),r=this.m,i=r[0],u=r[1];r[0]=i*e+r[2]*n,r[1]=u*e+r[3]*n,r[2]=r[2]*e-i*n,r[3]=r[3]*e-u*n,this.w=this.s=this.i=null}return this}},{key:"scaleSelf",value:function(){var t=arguments.length>0&&void 0!==arguments[0]?arguments[0]:1,n=arguments.length>1&&void 0!==arguments[1]?arguments[1]:1;if(1!==t||1!==n){var e=this.m;e[0]*=t,e[1]*=t,e[2]*=n,e[3]*=n,this.w=this.s=this.i=null}return this}},{key:"skewSelf",value:function(t,n){if(n%=360,(t%=360)||n){var e=this.m,r=e[0],i=e[1],u=e[2],o=e[3];t&&(t=et(t*it),e[2]+=r*t,e[3]+=i*t),n&&(n=et(n*it),e[0]+=u*n,e[1]+=o*n),this.w=this.s=this.i=null}return this}},{key:"resetSelf",value:function(){var t=arguments.length>0&&void 0!==arguments[0]?arguments[0]:1,n=arguments.length>1&&void 0!==arguments[1]?arguments[1]:0,e=arguments.length>2&&void 0!==arguments[2]?arguments[2]:0,r=arguments.length>3&&void 0!==arguments[3]?arguments[3]:1,i=arguments.length>4&&void 0!==arguments[4]?arguments[4]:0,u=arguments.length>5&&void 0!==arguments[5]?arguments[5]:0,o=this.m;return o[0]=t,o[1]=n,o[2]=e,o[3]=r,o[4]=i,o[5]=u,this.w=this.s=this.i=null,this}},{key:"recomposeSelf",value:function(){var t=arguments.length>0&&void 0!==arguments[0]?arguments[0]:null,n=arguments.length>1&&void 0!==arguments[1]?arguments[1]:null,e=arguments.length>2&&void 0!==arguments[2]?arguments[2]:null,r=arguments.length>3&&void 0!==arguments[3]?arguments[3]:null,i=arguments.length>4&&void 0!==arguments[4]?arguments[4]:null;return this.isIdentity||this.resetSelf(),t&&(t.x||t.y)&&this.translateSelf(t.x,t.y),n&&this.rotateSelf(n),e&&(e.x&&this.skewSelf(e.x,0),e.y&&this.skewSelf(0,e.y)),!r||1===r.x&&1===r.y||this.scaleSelf(r.x,r.y),i&&(i.x||i.y)&&this.translateSelf(i.x,i.y),this}},{key:"decompose",value:function(){var t=arguments.length>0&&void 0!==arguments[0]?arguments[0]:0,n=arguments.length>1&&void 0!==arguments[1]?arguments[1]:0,e=this.m,r=e[0]*e[0]+e[1]*e[1],i=[[e[0],e[1]],[e[2],e[3]]],u=ot(r);if(0===u)return{origin:{x:e[4],y:e[5]},translate:{x:t,y:n},scale:{x:0,y:0},skew:{x:0,y:0},rotate:0};i[0][0]/=u,i[0][1]/=u;var o=e[0]*e[3]-e[1]*e[2]<0;o&&(u=-u);var a=i[0][0]*i[1][0]+i[0][1]*i[1][1];i[1][0]-=i[0][0]*a,i[1][1]-=i[0][1]*a;var l=ot(i[1][0]*i[1][0]+i[1][1]*i[1][1]);if(0===l)return{origin:{x:e[4],y:e[5]},translate:{x:t,y:n},scale:{x:u,y:0},skew:{x:0,y:0},rotate:0};i[1][0]/=l,i[1][1]/=l,a/=l;var s=0;return i[1][1]<0?(s=tt(i[1][1])*ut,i[0][1]<0&&(s=360-s)):s=nt(i[0][1])*ut,o&&(s=-s),a=rt(a,ot(i[0][0]*i[0][0]+i[0][1]*i[0][1]))*ut,o&&(a=-a),{origin:{x:e[4],y:e[5]},translate:{x:t,y:n},scale:{x:u,y:l},skew:{x:a,y:0},rotate:s}}},{key:"toString",value:function(){return null===this.s&&(this.s="matrix("+this.m.map(st).join(" ")+")"),this.s}}]),t}(),lt=/\.0+$/;function st(t){return Number.isInteger(t)?t:t.toFixed(14).replace(lt,"")}Object.freeze({M:2,L:2,Z:0,H:1,V:1,C:6,Q:4,T:2,S:4,A:7});var ft={},ct=null;function ht(n){var e=function(){if(ct)return ct;if("object"!==("undefined"==typeof document?"undefined":t(document)))return{};var n=document.createElementNS("http://www.w3.org/2000/svg","svg");return n.style.position="absolute",n.style.opacity="0.01",n.style.zIndex="-9999",n.style.left="-9999px",n.style.width="1px",n.style.height="1px",ct={svg:n}}().svg;if(!e)return function(t){return null};var r=document.createElementNS(e.namespaceURI,"path");r.setAttributeNS(null,"d",n),r.setAttributeNS(null,"fill","none"),r.setAttributeNS(null,"stroke","none"),e.appendChild(r);var i=r.getTotalLength();return function(t){var n=r.getPointAtLength(i*t);return{x:n.x,y:n.y}}}function vt(t){return ft[t]?ft[t]:ft[t]=ht(t)}function dt(t,n,e,r){if(!t||!r)return!1;var i=["M",t.x,t.y];if(n&&e&&(i.push("C"),i.push(n.x),i.push(n.y),i.push(e.x),i.push(e.y)),n?!e:e){var u=n||e;i.push("Q"),i.push(u.x),i.push(u.y)}return n||e||i.push("L"),i.push(r.x),i.push(r.y),i.join(" ")}function yt(t,n,e,r){var i=arguments.length>4&&void 0!==arguments[4]?arguments[4]:1,u=dt(t,n,e,r),o=vt(u);try{return o(i)}catch(t){return null}}function gt(t,n,e,r){var i=1-r;return i*i*t+2*i*r*n+r*r*e}function pt(t,n,e,r){return 2*(1-r)*(n-t)+2*r*(e-n)}function mt(t,n,e,r){var i=arguments.length>4&&void 0!==arguments[4]&&arguments[4],u=yt(t,n,null,e,r);return u||(u={x:gt(t.x,n.x,e.x,r),y:gt(t.y,n.y,e.y,r)}),i&&(u.a=bt(t,n,e,r)),u}function bt(t,n,e,r){return Math.atan2(pt(t.y,n.y,e.y,r),pt(t.x,n.x,e.x,r))}function wt(t,n,e,r,i){var u=i*i;return i*u*(r-t+3*(n-e))+3*u*(t+e-2*n)+3*i*(n-t)+t}function xt(t,n,e,r,i){var u=1-i;return 3*(u*u*(n-t)+2*u*i*(e-n)+i*i*(r-e))}function At(t,n,e,r,i){var u=arguments.length>5&&void 0!==arguments[5]&&arguments[5],o=yt(t,n,e,r,i);return o||(o={x:wt(t.x,n.x,e.x,r.x,i),y:wt(t.y,n.y,e.y,r.y,i)}),u&&(o.a=kt(t,n,e,r,i)),o}function kt(t,n,e,r,i){return Math.atan2(xt(t.y,n.y,e.y,r.y,i),xt(t.x,n.x,e.x,r.x,i))}function _t(t,n,e){return t+(n-t)*e}function St(t,n,e){var r=arguments.length>3&&void 0!==arguments[3]&&arguments[3],i={x:_t(t.x,n.x,e),y:_t(t.y,n.y,e)};return r&&(i.a=Mt(t,n)),i}function Mt(t,n){return Math.atan2(n.y-t.y,n.x-t.x)}function Ot(t,n,e){var r=arguments.length>3&&void 0!==arguments[3]&&arguments[3];if(Bt(n)){if(It(e))return mt(n,e.start,e,t,r)}else if(Bt(e)){if(n.end)return mt(n,n.end,e,t,r)}else{if(n.end)return e.start?At(n,n.end,e.start,e,t,r):mt(n,n.end,e,t,r);if(e.start)return mt(n,e.start,e,t,r)}return St(n,e,t,r)}function Et(t,n,e){var r=Ot(t,n,e,!0);return r.a=function(t){var n=arguments.length>1&&void 0!==arguments[1]&&arguments[1];return n?t+Math.PI:t}(r.a)/p,r}function Bt(t){return!t.type||"corner"===t.type}function It(t){return null!=t.start&&!Bt(t)}var jt=new at;var Pt={f:function(t){return t?t.join(" "):""},i:function(n,e,r){if(0===n)return e;if(1===n)return r;var i=e.length;if(i!==r.length)return m(n,e,r);for(var u,o=new Array(i),a=0;a<i;a++){if((u=t(e[a]))!==t(r[a]))return m(n,e,r);if("number"===u)o[a]=b(n,e[a],r[a]);else{if(e[a]!==r[a])return m(n,e,r);o[a]=e[a]}}return o}},Tt={f:null,i:M,u:function(t,n){return function(e){var r=n(e);t.setAttribute("x1",G(r[0])),t.setAttribute("y1",G(r[1])),t.setAttribute("x2",G(r[2])),t.setAttribute("y2",G(r[3]))}}},Ft={f:G,i:b},Rt={f:G,i:function(t,n,e){var r=b(t,n,e);return r<=0?0:r>=1?1:r}},Ct={f:function(t){var n=arguments.length>1&&void 0!==arguments[1]?arguments[1]:" ";return t&&t.length>0&&(t=t.map((function(t){return Math.floor(1e4*t)/1e4}))),H(t,n)},i:function(t,n,e){var r,i,u,o=n.length,a=e.length;if(o!==a)if(0===o)n=O(o=a,0);else if(0===a)a=o,e=O(o,0);else{var l=(u=(r=o)*(i=a)/function(t,n){for(var e;n;)e=n,n=t%n,t=e;return t||1}(r,i))<0?-u:u;n=E(n,Math.floor(l/o)),e=E(e,Math.floor(l/a)),o=a=l}for(var s=[],f=0;f<o;f++)s.push(g(w(t,n[f],e[f]),6));return s}};function Nt(t,n,e,r,i,u,o,a){return n=function(t,n,e){for(var r,i,u,o=t.length-1,a={},l=0;l<=o;l++)(r=t[l]).e&&(r.e=n(r.e)),r.v&&"g"===(i=r.v).t&&i.r&&(u=e.getElementById(i.r))&&(a[i.r]=u.querySelectorAll("stop"));return a}(t,r,a),function(r){var i,u=e(r,t,qt);return u?"c"===u.t?X(u.v):"g"===u.t?(n[u.r]&&function(t,n){for(var e=0,r=t.length;e<r;e++)t[e].setAttribute("stop-color",X(n[e]))}(n[u.r],u.v),(i=u.r)?"url(#"+i+")":"none"):"none":"none"}}function qt(t,n,e){if(0===t)return n;if(1===t)return e;if(n&&e){var r=n.t;if(r===e.t)switch(n.t){case"c":return{t:r,v:_(t,n.v,e.v)};case"g":if(n.r===e.r)return{t:r,v:S(t,n.v,e.v),r:n.r}}}return m(t,n,e)}var Vt={blur:A,brightness:w,contrast:w,"drop-shadow":function(t,n,e){return 0===t?n:1===t?e:{blur:A(t,n.blur,e.blur),offset:x(t,n.offset,e.offset),color:_(t,n.color,e.color)}},grayscale:w,"hue-rotate":b,invert:w,opacity:w,saturate:w,sepia:w};function Lt(t,n,e){if(0===t)return n;if(1===t)return e;var r=n.length;if(r!==e.length)return m(t,n,e);for(var i,u=[],o=0;o<r;o++){if(n[o].type!==e[o].type)return n;if(!(i=Vt[n[o].type]))return m(t,n,e);u.push({type:n.type,value:i(t,n[o].value,e[o].value)})}return u}var zt={blur:function(t){return t?function(n){t.setAttribute("stdDeviation",Q(n))}:null},brightness:function(t,n,e){return(t=Ut(e,n))?function(n){n=G(n),t.map((function(t){return t.setAttribute("slope",n)}))}:null},contrast:function(t,n,e){return(t=Ut(e,n))?function(n){var e=G((1-n)/2);n=G(n),t.map((function(t){t.setAttribute("slope",n),t.setAttribute("intercept",e)}))}:null},"drop-shadow":function(t,n,e){var r=e.getElementById(n+"-blur");if(!r)return null;var i=e.getElementById(n+"-offset");if(!i)return null;var u=e.getElementById(n+"-flood");return u?function(t){r.setAttribute("stdDeviation",Q(t.blur)),i.setAttribute("dx",G(t.offset.x)),i.setAttribute("dy",G(t.offset.y)),u.setAttribute("flood-color",X(t.color))}:null},grayscale:function(t){return t?function(n){t.setAttribute("values",H(function(t){return[.2126+.7874*(t=1-t),.7152-.7152*t,.0722-.0722*t,0,0,.2126-.2126*t,.7152+.2848*t,.0722-.0722*t,0,0,.2126-.2126*t,.7152-.7152*t,.0722+.9278*t,0,0,0,0,0,1,0]}(n)))}:null},"hue-rotate":function(t){return t?function(n){return t.setAttribute("values",G(n))}:null},invert:function(t,n,e){return(t=Ut(e,n))?function(n){n=G(n)+" "+G(1-n),t.map((function(t){return t.setAttribute("tableValues",n)}))}:null},opacity:function(t,n,e){return(t=e.getElementById(n+"-A"))?function(n){return t.setAttribute("tableValues","0 "+G(n))}:null},saturate:function(t){return t?function(n){return t.setAttribute("values",G(n))}:null},sepia:function(t){return t?function(n){return t.setAttribute("values",H(function(t){return[.393+.607*(t=1-t),.769-.769*t,.189-.189*t,0,0,.349-.349*t,.686+.314*t,.168-.168*t,0,0,.272-.272*t,.534-.534*t,.131+.869*t,0,0,0,0,0,1,0]}(n)))}:null}};var Dt=["R","G","B"];function Ut(t,n){var e=Dt.map((function(e){return t.getElementById(n+"-"+e)||null}));return-1!==e.indexOf(null)?null:e}var Wt={fill:Nt,"fill-opacity":Rt,stroke:Nt,"stroke-opacity":Rt,"stroke-width":Ft,"stroke-dashoffset":{f:G,i:b},"stroke-dasharray":Ct,opacity:Rt,transform:function(n,e,r,i){if(!(n=function(n,e){if(!n||"object"!==t(n))return null;var r=!1;for(var i in n)n.hasOwnProperty(i)&&(n[i]&&n[i].length?(n[i].forEach((function(t){t.e&&(t.e=e(t.e))})),r=!0):delete n[i]);return r?n:null}(n,i)))return null;var u=function(t,i,u){var o=arguments.length>3&&void 0!==arguments[3]?arguments[3]:null;return n[t]?r(i,n[t],u):e&&e[t]?e[t]:o};return e&&e.a&&n.o?function(t){var e=r(t,n.o,Et);return jt.recomposeSelf(e,u("r",t,b,0)+e.a,u("k",t,x),u("s",t,x),u("t",t,x)).toString()}:function(t){return jt.recomposeSelf(u("o",t,Ot,null),u("r",t,b,0),u("k",t,x),u("s",t,x),u("t",t,x)).toString()}},"#filter":function(t,n,e,r,i,u,o,a){if(!n.items||!t||!t.length)return null;var l=function(t,n){var e=(t=t.map((function(t){return t&&zt[t[0]]?(n.getElementById(t[1]),zt[t[0]](n.getElementById(t[1]),t[1],n)):null}))).length;return function(n){for(var r=0;r<e;r++)t[r]&&t[r](n[r].value)}}(n.items,a);return l?(t=function(t,n){return t.map((function(t){return t.e=n(t.e),t}))}(t,r),function(n){l(e(n,t,Lt))}):null},"#line":Tt,points:{f:H,i:M},d:Pt,r:Ft,"#size":Z,"#radius":$,_:function(t,n){if(Array.isArray(t))for(var e=0;e<t.length;e++)this[t[e]]=n;else this[t]=n}};return function(t){!function(t,n){if("function"!=typeof n&&null!==n)throw new TypeError("Super expression must either be null or a function");t.prototype=Object.create(n&&n.prototype,{constructor:{value:t,writable:!0,configurable:!0}}),n&&u(t,n)}(o,t);var e=a(o);function o(){return n(this,o),e.apply(this,arguments)}return r(o,null,[{key:"build",value:function(t){var n=l(i(o),"build",this).call(this,t,Wt),e=n.el,r=n.options,u=n.player;return function(t,n,e){if("click"===e.start){return void n.addEventListener("click",(function(){switch(e.click){case"freeze":return!t._running&&t.reachedToEnd()&&(t.offset=0),t._running?t.pause():t.play();case"restart":return t.offset>0?t.restart():t.play();case"reverse":var n=!t._rollingBack&&t._running,r=t.reachedToEnd();return n||r&&1===t.fill?(t.pause(),r&&(t.offset=t.duration-1),t._rollback()):r?t.restart():t.play();case"none":default:return!t._running&&t.offset?t.restart():t.play()}}))}if("hover"===e.start)return n.addEventListener("mouseenter",(function(){return t.reachedToEnd()?t.restart():t.play()})),void n.addEventListener("mouseleave",(function(){switch(e.hover){case"freeze":return t.pause();case"reset":return t.stop();case"reverse":return t.pause(),t._rollback();case"none":default:return}}));if("scroll"===e.start)return void new W(n,e.scroll||25,(function(n){n?t.reachedToEnd()?t.restart():t.play():t.pause()}));t.play()}(u,e,r),u}}]),o}(D)}));
__SVGATOR_PLAYER__.build({"root":"eAdciU2ywKx1","animations":[{"duration":8000,"direction":1,"iterations":0,"fill":1,"alternate":false,"speed":1,"elements":{"eAdciU2ywKx2":{"transform":{"data":{"o":{"x":81.99999999999999,"y":82,"type":"corner"},"t":{"x":-64,"y":-64}},"keys":{"r":[{"t":0,"v":90},{"t":2000,"v":90},{"t":4000,"v":0},{"t":6000,"v":0},{"t":8000,"v":90}],"s":[{"t":0,"v":{"x":1,"y":1}},{"t":2000,"v":{"x":0.9,"y":0.9}},{"t":4000,"v":{"x":1,"y":1}},{"t":6000,"v":{"x":0.9,"y":0.9}},{"t":8000,"v":{"x":1,"y":1}}]}}},"eAdciU2ywKx3":{"#filter":{"keys":[{"t":0,"v":[{"type":"drop-shadow","value":{"blur":{"x":5,"y":5},"offset":{"x":0,"y":0},"color":{"r":0,"g":0,"b":0,"a":1}}}]},{"t":2000,"v":[{"type":"drop-shadow","value":{"blur":{"x":2,"y":2},"offset":{"x":0,"y":0},"color":{"r":0,"g":0,"b":0,"a":1}}}]},{"t":4000,"v":[{"type":"drop-shadow","value":{"blur":{"x":5,"y":5},"offset":{"x":0,"y":0},"color":{"r":0,"g":0,"b":0,"a":1}}}]},{"t":6000,"v":[{"type":"drop-shadow","value":{"blur":{"x":2,"y":2},"offset":{"x":0,"y":0},"color":{"r":0,"g":0,"b":0,"a":1}}}]},{"t":8000,"v":[{"type":"drop-shadow","value":{"blur":{"x":5,"y":5},"offset":{"x":0,"y":0},"color":{"r":0,"g":0,"b":0,"a":1}}}]}],"data":{"items":[["drop-shadow","eAdciU2ywKx3-filter-drop-shadow-0"]]}}},"eAdciU2ywKx4":{"d":[{"t":2000,"v":["M",64,104,"C",64,104,64.00000000000001,95.89,64.00000000000001,93.19,"C",64.00000000000001,75.89,64,24,64,24]},{"t":2200,"v":["M",66.8412602156044,100.52450144022048,"C",66.8412602156044,100.52450144022048,65.30801216964335,99.30230426036381,64.27587223174088,93.38049791253785,"C",60.07766114115162,76.91127857858615,64.39208837702645,22.502523450129452,64.39208837702645,22.502523450129452]},{"t":4000,"v":["M",79.91347504000001,86.11549033015415,"C",79.91347504000001,86.11549033015415,76.55218142970188,82.06924494375828,63.9037972484527,91.9663547117418,"C",35.37407645097159,114.29029540933581,65.8999533438581,40.63275146365102,64.55607856530835,14.016823]},{"t":6000,"v":["M",79.88478087784247,86.11549033015415,"C",79.88478087784247,86.11549033015415,76.52694509475955,82.06924494375828,63.89157254894634,91.9663547117418,"C",35.39120082252341,114.29029540933581,65.88567516028496,40.63275146365102,64.5431828514989,14.016823]},{"t":7300,"v":["M",69.63207692807197,97.89766311555395,"C",69.63207692807197,97.89766311555395,68.4824703831004,95.19085011447899,64.03445401295832,93.53951804910963,"C",56.49358411101121,92.32650374648375,64.63616895617928,47.609812463651004,64.26251761885172,20.59775645]},{"t":7700,"v":["M",66.47739878968103,101.52294704952313,"C",66.47739878968103,101.52294704952313,66.00724739489759,99.22826709008537,64.07841754034662,94.02356830676128,"C",61.26533693354932,88.86825550289134,64.25170550876214,49.756600463651,64.17615908572951,22.62265905]},{"t":8000,"v":["M",64.11139018588784,104.24191,"C",64.11139018588784,104.24191,64.15083015374547,102.25632982179015,64.11139018588784,94.386606,"C",64.0756540251525,87.25592789058989,63.9633579231993,51.366691463650994,64.11139018588784,24.141336]}]},"eAdciU2ywKx5":{"d":[{"t":0,"v":["M",24,64,"C",24,64,54.08310317999999,63.98317699999998,64.08310317999998,63.98317699999998,"C",74.08310317999998,63.98317699999998,104,64,104,64]},{"t":2000,"v":["M",24,64,"C",24,64,54,64,64,64,"C",74,64,104,64,104,64]},{"t":4000,"v":["M",15.777821,64,"C",15.777821,64,17.178460745308357,112.80446699,64.63918174530835,112.540867,"C",112.09990274530834,112.27726701000002,113.466119,64,113.466119,64]},{"t":6000,"v":["M",14.82442666666667,64,"C",14.82442666666667,64,17.17864396483916,112.80446699,64.64161629917818,112.540867,"C",112.10458863351722,112.27726701000002,113.92849666666667,64,113.92849666666667,64]},{"t":8000,"v":["M",23.97458600000001,64,"C",23.97458600000001,64,52.189318565661,63.997345629999955,64,64,"C",75.810681434339,64.00265437000004,104.435486,64,104.435486,64]}]},"eAdciU2ywKx11":{"transform":{"data":{"o":{"x":82.016823,"y":82,"type":"corner"},"t":{"x":8.318964317064353,"y":-70.07740349495549}},"keys":{"r":[{"t":0,"v":0},{"t":4000,"v":12},{"t":8000,"v":0}]}}}}}],"options":{"start":"load","hover":"freeze","click":"freeze","scroll":25,"font":"embed","exportedIds":"unique","svgFormat":"animated","title":"Icon (Plus-Icon) (Smiley)"},"animationSettings":{"duration":8000,"direction":1,"iterations":0,"fill":1,"alternate":false,"speed":1}})]]></script></svg>